{
	"asset":{
		"generator":"Khronos glTF Blender I/O v3.6.27",
		"version":"2.0"
	},
	"scene":0,
	"scenes":[
		{
			"name":"Scene",
			"nodes":[
				0
			]
		}
	],
	"nodes":[
		{
			"mesh":0,
			"name":"SP_Rock07_Mat",
			"rotation":[
				0.7071068286895752,
				0,
				0,
				0.7071068286895752
			],
			"translation":[
				-111,
				0,
				0
			]
		}
	],
	"materials":[
		{
			"doubleSided":true,
			"name":"ground2",
			"pbrMetallicRoughness":{
				"baseColorFactor":[
					0.08600308001041412,
					0.15921838581562042,
					0.3626430034637451,
					1
				],
				"metallicFactor":0,
				"roughnessFactor":0.6000000238418579
			}
		}
	],
	"meshes":[
		{
			"name":"SP_Rock07_Mat_0.004",
			"primitives":[
				{
					"attributes":{
						"POSITION":0,
						"NORMAL":1,
						"TEXCOORD_0":2
					},
					"indices":3,
					"material":0
				}
			]
		}
	],
	"accessors":[
		{
			"bufferView":0,
			"componentType":5126,
			"count":325,
			"max":[
				8.4888916015625,
				20.56769561767578,
				2.9258908398333006e-06
			],
			"min":[
				-20.5103759765625,
				-25.251731872558594,
				-103.14905548095703
			],
			"type":"VEC3"
		},
		{
			"bufferView":1,
			"componentType":5126,
			"count":325,
			"type":"VEC3"
		},
		{
			"bufferView":2,
			"componentType":5126,
			"count":325,
			"type":"VEC2"
		},
		{
			"bufferView":3,
			"componentType":5123,
			"count":342,
			"type":"SCALAR"
		}
	],
	"bufferViews":[
		{
			"buffer":0,
			"byteLength":3900,
			"byteOffset":0,
			"target":34962
		},
		{
			"buffer":0,
			"byteLength":3900,
			"byteOffset":3900,
			"target":34962
		},
		{
			"buffer":0,
			"byteLength":2600,
			"byteOffset":7800,
			"target":34962
		},
		{
			"buffer":0,
			"byteLength":684,
			"byteOffset":10400,
			"target":34963
		}
	],
	"buffers":[
		{
			"byteLength":11084,
			"uri":"data:application/octet-stream;base64,"
		}
	]
}
