{
	"asset":{
		"generator":"Khronos glTF Blender I/O v3.6.27",
		"version":"2.0"
	},
	"scene":0,
	"scenes":[
		{
			"name":"Scene",
			"nodes":[
				0
			]
		}
	],
	"nodes":[
		{
			"mesh":0,
			"name":"SP_Rock08_Mat",
			"rotation":[
				0.7071068286895752,
				0,
				0,
				0.7071068286895752
			],
			"translation":[
				97,
				0,
				0
			]
		}
	],
	"materials":[
		{
			"doubleSided":true,
			"name":"Material.002",
			"pbrMetallicRoughness":{
				"baseColorFactor":[
					0.11673372238874435,
					0.11673372238874435,
					0.11673372238874435,
					1
				],
				"metallicFactor":0,
				"roughnessFactor":0.6000000238418579
			}
		}
	],
	"meshes":[
		{
			"name":"SP_Rock08_Mat_0.004",
			"primitives":[
				{
					"attributes":{
						"POSITION":0,
						"NORMAL":1,
						"TEXCOORD_0":2
					},
					"indices":3,
					"material":0
				}
			]
		}
	],
	"accessors":[
		{
			"bufferView":0,
			"componentType":5126,
			"count":1352,
			"max":[
				51.246063232421875,
				26.107192993164062,
				3.4543763831607066e-06
			],
			"min":[
				-52.038665771484375,
				-16.791229248046875,
				-103.14905548095703
			],
			"type":"VEC3"
		},
		{
			"bufferView":1,
			"componentType":5126,
			"count":1352,
			"type":"VEC3"
		},
		{
			"bufferView":2,
			"componentType":5126,
			"count":1352,
			"type":"VEC2"
		},
		{
			"bufferView":3,
			"componentType":5123,
			"count":1404,
			"type":"SCALAR"
		}
	],
	"bufferViews":[
		{
			"buffer":0,
			"byteLength":16224,
			"byteOffset":0,
			"target":34962
		},
		{
			"buffer":0,
			"byteLength":16224,
			"byteOffset":16224,
			"target":34962
		},
		{
			"buffer":0,
			"byteLength":10816,
			"byteOffset":32448,
			"target":34962
		},
		{
			"buffer":0,
			"byteLength":2808,
			"byteOffset":43264,
			"target":34963
		}
	],
	"buffers":[
		{
			"byteLength":46072,
			"uri":"data:application/octet-stream;base64,"
		}
	]
}
