# Blender 3.6.0
# www.blender.org
mtllib rock1.mtl
o SP_Mountain01_Mat
v -27.110214 41.918438 -35.152775
v -36.862961 20.454918 -39.100464
v -44.630890 12.052611 -37.766876
v -31.472107 1.910970 48.301193
v -37.210220 23.548632 42.072830
v -39.770416 -0.000013 42.463608
v -40.648773 31.947031 0.036542
v -43.950470 20.521297 -7.413240
v -61.066833 -0.000016 9.956390
v -31.768005 71.983566 -24.629736
v -40.648773 31.947031 0.036542
v -27.551941 88.975525 -16.571098
v -48.998840 19.803268 -20.579103
v -56.099548 -0.000019 -29.763458
v -59.444504 -0.000018 -20.854309
v -4.885635 76.321495 -24.601568
v -15.226501 67.810341 -34.807285
v -11.535233 101.131531 -12.811775
v -22.589417 50.109406 39.937588
v -23.360046 36.789661 25.210630
v -33.435379 56.572853 25.664089
v -2.646317 -0.000012 54.773819
v 4.911377 24.901743 48.816132
v -8.342056 11.838709 53.255600
v -15.226501 67.810341 -34.807285
v -22.051346 93.571701 -25.336006
v -19.493942 120.930206 -10.091166
v -11.535233 101.131531 -12.811775
v -15.226501 67.810341 -34.807285
v -19.493942 120.930206 -10.091166
v 61.878685 -0.000016 13.985611
v 49.618805 37.573326 21.675413
v 47.889999 14.056726 28.993025
v -8.342056 11.838709 53.255600
v -22.589417 50.109406 39.937588
v -19.241150 27.070663 51.022503
v -5.779510 -0.000021 -56.508270
v -17.966812 17.220205 -48.344177
v -15.226501 67.810341 -34.807285
v -0.463043 67.565208 -17.817663
v -4.885635 76.321495 -24.601568
v -11.535233 101.131531 -12.811775
v -34.055115 21.055521 -47.760101
v -39.068481 -0.000021 -56.973236
v -36.862961 20.454918 -39.100464
v 35.656525 57.171139 22.060604
v 30.894669 68.701477 18.883158
v 23.004883 55.744408 16.427746
v -19.493942 120.930206 -10.091166
v -27.551941 88.975525 -16.571098
v -34.429947 29.737986 0.657514
v -12.576233 130.111145 4.485082
v -23.054749 72.327370 2.755976
v -20.393860 38.316048 5.934659
v -4.510651 46.904263 5.976895
v -9.368515 75.767822 0.544870
v -5.545700 87.613846 12.244302
v -43.950470 20.521297 -7.413240
v -58.310181 -0.000018 -12.707764
v -61.066833 -0.000016 9.956390
v 18.799103 30.767126 24.066130
v 9.680664 34.945217 25.256178
v 11.725357 41.035793 33.917416
v 34.427689 -0.000013 47.699234
v 36.697235 8.671871 40.119507
v 21.494659 39.904640 35.439907
v -1.311798 76.463425 27.358561
v 2.745255 25.565872 20.387266
v -7.023636 78.483788 24.213144
v -23.054749 72.327370 2.755976
v -8.173187 91.238525 -5.707206
v -19.493942 120.930206 -10.091166
v -27.296265 25.706156 11.511824
v -20.393860 38.316048 5.934659
v -34.429947 29.737986 0.657514
v 49.618805 37.573326 21.675413
v 47.664902 52.362019 14.043331
v 40.657379 49.793213 17.639370
v 40.657379 49.793213 17.639370
v 31.441223 70.515747 8.533442
v 30.894669 68.701477 18.883158
v 14.761276 4.406161 -35.947815
v 3.059677 17.141373 -27.972582
v 12.572449 -0.000018 -17.478821
v 31.441223 70.515747 8.533442
v 26.777817 86.661163 0.839608
v 21.452209 82.050461 9.754190
v -28.134949 32.945282 20.612516
v -42.623520 56.154980 18.435528
v -33.435379 56.572853 25.664089
v -11.418671 -0.000021 -51.600952
v -17.966812 17.220205 -48.344177
v -5.779510 -0.000021 -56.508270
v -27.110214 41.918438 -35.152775
v -34.055115 21.055521 -47.760101
v -36.862961 20.454918 -39.100464
v 46.617218 12.729793 -8.303010
v 64.292274 -0.000019 -26.256897
v 54.682709 19.130840 -19.211260
v -5.545700 87.613846 12.244302
v -12.576233 130.111145 4.485082
v -10.582397 107.369568 16.282143
v -8.342056 11.838709 53.255600
v -16.079163 23.291010 39.300125
v -22.589417 50.109406 39.937588
v -42.004761 43.635059 35.824169
v -59.886414 -0.000014 33.587051
v -37.210220 23.548632 42.072830
v 52.890503 33.599712 2.589826
v 46.617218 12.729793 -8.303010
v 41.931610 38.852757 -2.089175
v 41.931610 38.852757 -2.089175
v 33.235916 61.809429 -8.476430
v 36.737823 72.248337 2.777872
v 7.309845 9.001708 -44.229645
v 0.087845 19.901556 -42.505920
v -2.868027 40.819965 -41.636326
v 56.849792 -0.000014 30.123550
v 47.889999 14.056726 28.993025
v 40.325317 -0.000013 42.088165
v 3.683746 19.996571 5.290755
v 5.710464 14.711972 -3.505571
v -4.510651 46.904263 5.976895
v -0.463043 67.565208 -17.817663
v 2.823822 31.465288 -24.879763
v -4.885635 76.321495 -24.601568
v 23.353989 -0.000012 59.494507
v 4.911377 24.901743 48.816132
v 0.858597 -0.000012 59.009735
v 34.914383 -0.000020 -45.123047
v 14.761276 4.406161 -35.947815
v 31.059937 22.242306 -32.272720
v 3.257935 53.332737 35.663326
v -7.012131 27.462307 35.715954
v 1.610626 17.959600 37.921890
v -1.311798 76.463425 27.358561
v -7.023636 78.483788 24.213144
v -7.012131 27.462307 35.715954
v 5.710464 14.711972 -3.505571
v -5.483948 51.872688 -11.827229
v -8.173187 91.238525 -5.707206
v 0.087845 19.901556 -42.505920
v -5.779510 -0.000021 -56.508270
v -2.868027 40.819965 -41.636326
v -22.051346 93.571701 -25.336006
v -22.061371 75.049026 -25.485235
v -31.768005 71.983566 -24.629736
v -27.110214 41.918438 -35.152775
v -44.630890 12.052611 -37.766876
v -35.507538 48.365036 -20.176365
v 18.799103 30.767126 24.066130
v 10.592758 18.667349 23.569090
v 9.680664 34.945217 25.256178
v 9.680664 34.945217 25.256178
v 2.745255 25.565872 20.387266
v -1.311798 76.463425 27.358561
v 5.710464 14.711972 -3.505571
v -8.173187 91.238525 -5.707206
v -9.368515 75.767822 0.544870
v -10.582397 107.369568 16.282143
v -12.576233 130.111145 4.485082
v -18.984726 52.322990 14.476803
v -37.210220 23.548632 42.072830
v -50.441101 -0.000013 43.339066
v -39.770416 -0.000013 42.463608
v 55.373520 6.735919 1.041336
v 46.617218 12.729793 -8.303010
v 52.890503 33.599712 2.589826
v -31.768005 71.983566 -24.629736
v -27.110214 41.918438 -35.152775
v -35.507538 48.365036 -20.176365
v 47.889999 14.056726 28.993025
v 35.656525 57.171139 22.060604
v 36.697235 8.671871 40.119507
v -42.623520 56.154980 18.435528
v -40.648773 31.947031 0.036542
v -61.066833 -0.000016 9.956390
v -43.950470 20.521297 -7.413240
v -48.998840 19.803268 -20.579103
v -59.444504 -0.000018 -20.854309
v 39.548340 31.733881 -10.811633
v 29.717133 37.398266 -13.007510
v 33.235916 61.809429 -8.476430
v 7.309845 9.001708 -44.229645
v -2.868027 40.819965 -41.636326
v 3.059677 17.141373 -27.972582
v 6.777100 -0.000021 -58.995056
v -5.779510 -0.000021 -56.508270
v 0.087845 19.901556 -42.505920
v 29.717133 37.398266 -13.007510
v 29.607574 21.911568 -18.026690
v 21.946243 8.635616 -16.800339
v -40.906403 -0.000021 -53.804077
v -44.630890 12.052611 -37.766876
v -39.068481 -0.000021 -56.973236
v 15.864090 44.847649 2.492321
v 5.710464 14.711972 -3.505571
v 3.683746 19.996571 5.290755
v -5.545700 87.613846 12.244302
v -9.368515 75.767822 0.544870
v -12.576233 130.111145 4.485082
v 7.309845 9.001708 -44.229645
v 13.697556 -0.000020 -50.858734
v 6.777100 -0.000021 -58.995056
v -17.966812 17.220205 -48.344177
v -20.569397 -0.000021 -55.734161
v -34.055115 21.055521 -47.760101
v -31.472107 1.910970 48.301193
v -39.770416 -0.000013 42.463608
v -29.466492 -0.000013 51.234680
v 1.610626 17.959600 37.921890
v -7.012131 27.462307 35.715954
v -9.364410 10.310281 40.578247
v 0.858597 -0.000012 59.009735
v 4.911377 24.901743 48.816132
v -2.646317 -0.000012 54.773819
v -19.241150 27.070663 51.022503
v -22.589417 50.109406 39.937588
v -31.472107 1.910970 48.301193
v -22.589417 50.109406 39.937588
v -32.423279 50.290146 40.980389
v -37.210220 23.548632 42.072830
v 60.755920 9.346101 -26.925537
v 31.059937 22.242306 -32.272720
v 54.682709 19.130840 -19.211260
v 36.737823 72.248337 2.777872
v 33.235916 61.809429 -8.476430
v 26.777817 86.661163 0.839608
v 49.336136 -0.000020 -42.211670
v 34.914383 -0.000020 -45.123047
v 31.059937 22.242306 -32.272720
v -40.648773 31.947031 0.036542
v -35.507538 48.365036 -20.176365
v -43.950470 20.521297 -7.413240
v 31.059937 22.242306 -32.272720
v 12.572449 -0.000018 -17.478821
v 21.946243 8.635616 -16.800339
v -44.630890 12.052611 -37.766876
v -58.519562 -0.000020 -41.322510
v -51.479431 23.498146 -28.411074
v -29.466492 -0.000013 51.234680
v -16.039688 -0.000012 54.843048
v -19.241150 27.070663 51.022503
v 46.617218 12.729793 -8.303010
v 39.548340 31.733881 -10.811633
v 41.931610 38.852757 -2.089175
v 6.856995 22.842691 15.857313
v -4.510651 46.904263 5.976895
v -3.765823 40.812851 16.765987
v -44.630890 12.052611 -37.766876
v -47.917389 -0.000021 -52.780273
v -58.519562 -0.000020 -41.322510
v 14.761276 4.406161 -35.947815
v 13.697556 -0.000020 -50.858734
v 7.309845 9.001708 -44.229645
v -8.342056 11.838709 53.255600
v -19.241150 27.070663 51.022503
v -16.039688 -0.000012 54.843048
v 5.710464 14.711972 -3.505571
v -9.368515 75.767822 0.544870
v -4.510651 46.904263 5.976895
v -37.210220 23.548632 42.072830
v -59.886414 -0.000014 33.587051
v -53.542892 -0.000014 40.033401
v 19.234665 13.535764 48.471344
v 11.725357 41.035793 33.917416
v 4.911377 24.901743 48.816132
v 14.761276 4.406161 -35.947815
v 7.309845 9.001708 -44.229645
v 3.059677 17.141373 -27.972582
v -43.950470 20.521297 -7.413240
v -59.444504 -0.000018 -20.854309
v -58.310181 -0.000018 -12.707764
v 23.353989 -0.000012 59.494507
v 19.234665 13.535764 48.471344
v 4.911377 24.901743 48.816132
v 2.745255 25.565872 20.387266
v -3.765823 40.812851 16.765987
v -7.023636 78.483788 24.213144
v 7.309845 9.001708 -44.229645
v 6.777100 -0.000021 -58.995056
v 0.087845 19.901556 -42.505920
v -34.429947 29.737986 0.657514
v -32.534485 49.849541 -8.662022
v -40.648773 31.947031 0.036542
v -32.423279 50.290146 40.980389
v -33.435379 56.572853 25.664089
v -42.004761 43.635059 35.824169
v -22.051346 93.571701 -25.336006
v -15.226501 67.810341 -34.807285
v -22.061371 75.049026 -25.485235
v 65.167389 -0.000016 7.447998
v 68.318970 -0.000017 -3.824936
v 55.373520 6.735919 1.041336
v -42.004761 43.635059 35.824169
v -49.777054 21.421091 27.921415
v -59.886414 -0.000014 33.587051
v 11.725357 41.035793 33.917416
v 9.680664 34.945217 25.256178
v 3.257935 53.332737 35.663326
v -59.546967 -0.000014 34.302902
v -59.886414 -0.000014 33.587051
v -59.915482 -0.000014 33.903229
v -6.600586 -0.000012 55.943710
v -2.646317 -0.000012 54.773819
v -8.342056 11.838709 53.255600
v 47.889999 14.056726 28.993025
v 40.657379 49.793213 17.639370
v 35.656525 57.171139 22.060604
v 60.160568 8.158149 -12.388154
v 46.617218 12.729793 -8.303010
v 55.373520 6.735919 1.041336
v 34.427689 -0.000013 47.699234
v 19.234665 13.535764 48.471344
v 23.353989 -0.000012 59.494507
v 34.427689 -0.000013 47.699234
v 40.325317 -0.000013 42.088165
v 36.697235 8.671871 40.119507
v 55.373520 6.735919 1.041336
v 61.878685 -0.000016 13.985611
v 65.167389 -0.000016 7.447998
v -10.582397 107.369568 16.282143
v -18.984726 52.322990 14.476803
v -11.694382 71.929504 19.185144
v 68.318970 -0.000017 -3.824936
v 63.078827 -0.000017 -10.554230
v 60.160568 8.158149 -12.388154
v 52.890503 33.599712 2.589826
v 41.931610 38.852757 -2.089175
v 36.737823 72.248337 2.777872
v -8.173187 91.238525 -5.707206
v -0.463043 67.565208 -17.817663
v -11.535233 101.131531 -12.811775
v -15.226501 67.810341 -34.807285
v -27.110214 41.918438 -35.152775
v -22.061371 75.049026 -25.485235
v -28.134949 32.945282 20.612516
v -27.296265 25.706156 11.511824
v -42.623520 56.154980 18.435528
v -12.576233 130.111145 4.485082
v -20.393860 38.316048 5.934659
v -18.984726 52.322990 14.476803
v -23.360046 36.789661 25.210630
v -18.984726 52.322990 14.476803
v -28.134949 32.945282 20.612516
v -51.479431 23.498146 -28.411074
v -58.519562 -0.000020 -41.322510
v -56.099548 -0.000019 -29.763458
v 5.710464 14.711972 -3.505571
v 2.203293 27.778234 -15.027224
v -5.483948 51.872688 -11.827229
v -3.765823 40.812851 16.765987
v -5.545700 87.613846 12.244302
v -7.023636 78.483788 24.213144
v -36.862961 20.454918 -39.100464
v -39.068481 -0.000021 -56.973236
v -44.630890 12.052611 -37.766876
v 41.931610 38.852757 -2.089175
v 39.548340 31.733881 -10.811633
v 33.235916 61.809429 -8.476430
v 6.856995 22.842691 15.857313
v 3.683746 19.996571 5.290755
v -4.510651 46.904263 5.976895
v -7.012131 27.462307 35.715954
v -16.681702 36.982433 29.202528
v -16.079163 23.291010 39.300125
v 2.203293 27.778234 -15.027224
v 12.572449 -0.000018 -17.478821
v 2.823822 31.465288 -24.879763
v 2.823822 31.465288 -24.879763
v 3.059677 17.141373 -27.972582
v -4.885635 76.321495 -24.601568
v -22.051346 93.571701 -25.336006
v -31.768005 71.983566 -24.629736
v -27.551941 88.975525 -16.571098
v 68.318970 -0.000017 -3.824936
v 60.160568 8.158149 -12.388154
v 55.373520 6.735919 1.041336
v 2.203293 27.778234 -15.027224
v -0.463043 67.565208 -17.817663
v -5.483948 51.872688 -11.827229
v 34.427689 -0.000013 47.699234
v 21.494659 39.904640 35.439907
v 19.234665 13.535764 48.471344
v -8.173187 91.238525 -5.707206
v -11.535233 101.131531 -12.811775
v -19.493942 120.930206 -10.091166
v -16.079163 23.291010 39.300125
v -16.681702 36.982433 29.202528
v -22.589417 50.109406 39.937588
v 30.894669 68.701477 18.883158
v 31.441223 70.515747 8.533442
v 21.452209 82.050461 9.754190
v -23.054749 72.327370 2.755976
v -19.493942 120.930206 -10.091166
v -20.393860 38.316048 5.934659
v -33.435379 56.572853 25.664089
v -42.623520 56.154980 18.435528
v -42.004761 43.635059 35.824169
v 4.911377 24.901743 48.816132
v 1.610626 17.959600 37.921890
v -8.342056 11.838709 53.255600
v 56.849792 -0.000014 30.123550
v 61.878685 -0.000016 13.985611
v 47.889999 14.056726 28.993025
v 23.004883 55.744408 16.427746
v 21.452209 82.050461 9.754190
v 13.688446 25.222742 8.615767
v 36.697235 8.671871 40.119507
v 35.656525 57.171139 22.060604
v 21.494659 39.904640 35.439907
v 30.894669 68.701477 18.883158
v 21.452209 82.050461 9.754190
v 23.004883 55.744408 16.427746
v 55.373520 6.735919 1.041336
v 52.890503 33.599712 2.589826
v 47.664902 52.362019 14.043331
v -12.576233 130.111145 4.485082
v -8.173187 91.238525 -5.707206
v -23.054749 72.327370 2.755976
v 22.921112 41.423595 -4.364475
v 15.864090 44.847649 2.492321
v 26.777817 86.661163 0.839608
v 21.494659 39.904640 35.439907
v 11.725357 41.035793 33.917416
v 19.234665 13.535764 48.471344
v 34.914383 -0.000020 -45.123047
v 20.511322 -0.000020 -45.696198
v 14.761276 4.406161 -35.947815
v 3.257935 53.332737 35.663326
v 9.680664 34.945217 25.256178
v -1.311798 76.463425 27.358561
v 29.607574 21.911568 -18.026690
v 31.059937 22.242306 -32.272720
v 21.946243 8.635616 -16.800339
v -27.296265 25.706156 11.511824
v -34.429947 29.737986 0.657514
v -40.648773 31.947031 0.036542
v 14.761276 4.406161 -35.947815
v 20.511322 -0.000020 -45.696198
v 13.697556 -0.000020 -50.858734
v -19.493942 120.930206 -10.091166
v -22.051346 93.571701 -25.336006
v -27.551941 88.975525 -16.571098
v 22.921112 41.423595 -4.364475
v 13.711655 20.775167 -8.312731
v 15.864090 44.847649 2.492321
v 40.657379 49.793213 17.639370
v 47.664902 52.362019 14.043331
v 36.737823 72.248337 2.777872
v 61.878685 -0.000016 13.985611
v 55.373520 6.735919 1.041336
v 49.618805 37.573326 21.675413
v -61.066833 -0.000016 9.956390
v -58.104996 -0.000015 27.356918
v -49.777054 21.421091 27.921415
v 12.572449 -0.000018 -17.478821
v 3.059677 17.141373 -27.972582
v 2.823822 31.465288 -24.879763
v 23.004883 55.744408 16.427746
v 10.592758 18.667349 23.569090
v 18.799103 30.767126 24.066130
v 47.664902 52.362019 14.043331
v 52.890503 33.599712 2.589826
v 36.737823 72.248337 2.777872
v -4.885635 76.321495 -24.601568
v -2.868027 40.819965 -41.636326
v -15.226501 67.810341 -34.807285
v 3.257935 53.332737 35.663326
v -1.311798 76.463425 27.358561
v -7.012131 27.462307 35.715954
v -7.012131 27.462307 35.715954
v -11.694382 71.929504 19.185144
v -16.681702 36.982433 29.202528
v -7.012131 27.462307 35.715954
v -7.023636 78.483788 24.213144
v -11.694382 71.929504 19.185144
v -9.364410 10.310281 40.578247
v -7.012131 27.462307 35.715954
v -8.342056 11.838709 53.255600
v -6.600586 -0.000012 55.943710
v -8.342056 11.838709 53.255600
v -16.039688 -0.000012 54.843048
v 40.657379 49.793213 17.639370
v 36.737823 72.248337 2.777872
v 31.441223 70.515747 8.533442
v 39.548340 31.733881 -10.811633
v 29.607574 21.911568 -18.026690
v 29.717133 37.398266 -13.007510
v -44.630890 12.052611 -37.766876
v -40.906403 -0.000021 -53.804077
v -47.917389 -0.000021 -52.780273
v -32.534485 49.849541 -8.662022
v -27.551941 88.975525 -16.571098
v -40.648773 31.947031 0.036542
v 10.592758 18.667349 23.569090
v 23.004883 55.744408 16.427746
v 6.856995 22.842691 15.857313
v 21.494659 39.904640 35.439907
v 18.799103 30.767126 24.066130
v 11.725357 41.035793 33.917416
v -22.061371 75.049026 -25.485235
v -27.110214 41.918438 -35.152775
v -31.768005 71.983566 -24.629736
v -20.393860 38.316048 5.934659
v -19.493942 120.930206 -10.091166
v -34.429947 29.737986 0.657514
v 31.441223 70.515747 8.533442
v 36.737823 72.248337 2.777872
v 26.777817 86.661163 0.839608
v 13.711655 20.775167 -8.312731
v 12.572449 -0.000018 -17.478821
v 5.710464 14.711972 -3.505571
v -7.023636 78.483788 24.213144
v -5.545700 87.613846 12.244302
v -10.582397 107.369568 16.282143
v 49.336136 -0.000020 -42.211670
v 31.059937 22.242306 -32.272720
v 60.755920 9.346101 -26.925537
v -35.507538 48.365036 -20.176365
v -44.630890 12.052611 -37.766876
v -51.479431 23.498146 -28.411074
v -59.886414 -0.000014 33.587051
v -59.546967 -0.000014 34.302902
v -53.542892 -0.000014 40.033401
v -7.023636 78.483788 24.213144
v -10.582397 107.369568 16.282143
v -11.694382 71.929504 19.185144
v 15.864090 44.847649 2.492321
v 3.683746 19.996571 5.290755
v 6.856995 22.842691 15.857313
v -35.507538 48.365036 -20.176365
v -48.998840 19.803268 -20.579103
v -43.950470 20.521297 -7.413240
v -49.777054 21.421091 27.921415
v -58.104996 -0.000015 27.356918
v -56.635773 -0.000014 28.883606
v 33.235916 61.809429 -8.476430
v 29.717133 37.398266 -13.007510
v 22.921112 41.423595 -4.364475
v 35.656525 57.171139 22.060604
v 23.004883 55.744408 16.427746
v 21.494659 39.904640 35.439907
v -11.694382 71.929504 19.185144
v -18.984726 52.322990 14.476803
v -16.681702 36.982433 29.202528
v 35.656525 57.171139 22.060604
v 40.657379 49.793213 17.639370
v 30.894669 68.701477 18.883158
v -15.226501 67.810341 -34.807285
v -17.966812 17.220205 -48.344177
v -27.110214 41.918438 -35.152775
v -22.589417 50.109406 39.937588
v -37.210220 23.548632 42.072830
v -31.472107 1.910970 48.301193
v 2.745255 25.565872 20.387266
v 6.856995 22.842691 15.857313
v -3.765823 40.812851 16.765987
v 6.856995 22.842691 15.857313
v 2.745255 25.565872 20.387266
v 10.592758 18.667349 23.569090
v -35.507538 48.365036 -20.176365
v -51.479431 23.498146 -28.411074
v -48.998840 19.803268 -20.579103
v -18.984726 52.322990 14.476803
v -20.393860 38.316048 5.934659
v -27.296265 25.706156 11.511824
v -5.483948 51.872688 -11.827229
v -0.463043 67.565208 -17.817663
v -8.173187 91.238525 -5.707206
v 46.617218 12.729793 -8.303010
v 54.682709 19.130840 -19.211260
v 39.548340 31.733881 -10.811633
v 60.755920 9.346101 -26.925537
v 54.682709 19.130840 -19.211260
v 64.292274 -0.000019 -26.256897
v 3.257935 53.332737 35.663326
v 1.610626 17.959600 37.921890
v 4.911377 24.901743 48.816132
v -48.998840 19.803268 -20.579103
v -51.479431 23.498146 -28.411074
v -56.099548 -0.000019 -29.763458
v 2.823822 31.465288 -24.879763
v -0.463043 67.565208 -17.817663
v 2.203293 27.778234 -15.027224
v -34.429947 29.737986 0.657514
v -27.551941 88.975525 -16.571098
v -32.534485 49.849541 -8.662022
v 21.494659 39.904640 35.439907
v 23.004883 55.744408 16.427746
v 18.799103 30.767126 24.066130
v -42.004761 43.635059 35.824169
v -42.623520 56.154980 18.435528
v -49.777054 21.421091 27.921415
v 60.160568 8.158149 -12.388154
v 64.292274 -0.000019 -26.256897
v 46.617218 12.729793 -8.303010
v -16.681702 36.982433 29.202528
v -18.984726 52.322990 14.476803
v -23.360046 36.789661 25.210630
v -27.296265 25.706156 11.511824
v -40.648773 31.947031 0.036542
v -42.623520 56.154980 18.435528
v 23.004883 55.744408 16.427746
v 13.688446 25.222742 8.615767
v 6.856995 22.842691 15.857313
v 13.711655 20.775167 -8.312731
v 5.710464 14.711972 -3.505571
v 15.864090 44.847649 2.492321
v 40.325317 -0.000013 42.088165
v 47.889999 14.056726 28.993025
v 36.697235 8.671871 40.119507
v 13.688446 25.222742 8.615767
v 15.864090 44.847649 2.492321
v 6.856995 22.842691 15.857313
v -31.768005 71.983566 -24.629736
v -35.507538 48.365036 -20.176365
v -40.648773 31.947031 0.036542
v -22.589417 50.109406 39.937588
v -33.435379 56.572853 25.664089
v -32.423279 50.290146 40.980389
v -37.210220 23.548632 42.072830
v -53.542892 -0.000014 40.033401
v -50.441101 -0.000013 43.339066
v -17.966812 17.220205 -48.344177
v -34.055115 21.055521 -47.760101
v -27.110214 41.918438 -35.152775
v -20.569397 -0.000021 -55.734161
v -17.966812 17.220205 -48.344177
v -11.418671 -0.000021 -51.600952
v 29.717133 37.398266 -13.007510
v 21.946243 8.635616 -16.800339
v 22.921112 41.423595 -4.364475
v 10.592758 18.667349 23.569090
v 2.745255 25.565872 20.387266
v 9.680664 34.945217 25.256178
v -19.241150 27.070663 51.022503
v -31.472107 1.910970 48.301193
v -29.466492 -0.000013 51.234680
v -2.868027 40.819965 -41.636326
v -5.779510 -0.000021 -56.508270
v -15.226501 67.810341 -34.807285
v 12.572449 -0.000018 -17.478821
v 2.203293 27.778234 -15.027224
v 5.710464 14.711972 -3.505571
v -49.777054 21.421091 27.921415
v -42.623520 56.154980 18.435528
v -61.066833 -0.000016 9.956390
v 60.755920 9.346101 -26.925537
v 64.292274 -0.000019 -26.256897
v 49.336136 -0.000020 -42.211670
v 31.059937 22.242306 -32.272720
v 14.761276 4.406161 -35.947815
v 12.572449 -0.000018 -17.478821
v -8.342056 11.838709 53.255600
v 1.610626 17.959600 37.921890
v -9.364410 10.310281 40.578247
v -8.342056 11.838709 53.255600
v -7.012131 27.462307 35.715954
v -16.079163 23.291010 39.300125
v -18.984726 52.322990 14.476803
v -27.296265 25.706156 11.511824
v -28.134949 32.945282 20.612516
v 13.711655 20.775167 -8.312731
v 21.946243 8.635616 -16.800339
v 12.572449 -0.000018 -17.478821
v 26.777817 86.661163 0.839608
v 15.864090 44.847649 2.492321
v 21.452209 82.050461 9.754190
v 22.921112 41.423595 -4.364475
v 21.946243 8.635616 -16.800339
v 13.711655 20.775167 -8.312731
v -32.423279 50.290146 40.980389
v -42.004761 43.635059 35.824169
v -37.210220 23.548632 42.072830
v 21.452209 82.050461 9.754190
v 15.864090 44.847649 2.492321
v 13.688446 25.222742 8.615767
v 54.682709 19.130840 -19.211260
v 31.059937 22.242306 -32.272720
v 29.607574 21.911568 -18.026690
v 54.682709 19.130840 -19.211260
v 29.607574 21.911568 -18.026690
v 39.548340 31.733881 -10.811633
v -49.777054 21.421091 27.921415
v -56.635773 -0.000014 28.883606
v -59.886414 -0.000014 33.587051
v -23.360046 36.789661 25.210630
v -28.134949 32.945282 20.612516
v -33.435379 56.572853 25.664089
v -3.765823 40.812851 16.765987
v -4.510651 46.904263 5.976895
v -5.545700 87.613846 12.244302
v -39.068481 -0.000021 -56.973236
v -34.055115 21.055521 -47.760101
v -20.569397 -0.000021 -55.734161
v 11.725357 41.035793 33.917416
v 3.257935 53.332737 35.663326
v 4.911377 24.901743 48.816132
v 55.373520 6.735919 1.041336
v 47.664902 52.362019 14.043331
v 49.618805 37.573326 21.675413
v 64.292274 -0.000019 -26.256897
v 60.160568 8.158149 -12.388154
v 63.078827 -0.000017 -10.554230
v 33.235916 61.809429 -8.476430
v 22.921112 41.423595 -4.364475
v 26.777817 86.661163 0.839608
v -9.368515 75.767822 0.544870
v -8.173187 91.238525 -5.707206
v -12.576233 130.111145 4.485082
v 3.059677 17.141373 -27.972582
v -2.868027 40.819965 -41.636326
v -4.885635 76.321495 -24.601568
v -16.681702 36.982433 29.202528
v -23.360046 36.789661 25.210630
v -22.589417 50.109406 39.937588
v 47.889999 14.056726 28.993025
v 49.618805 37.573326 21.675413
v 40.657379 49.793213 17.639370
vn -0.5438 0.3843 -0.7461
vn -0.5855 0.0770 0.8070
vn -0.8424 0.4432 -0.3064
vn -0.9728 0.2303 0.0235
vn -0.8378 0.4463 -0.3145
vn 0.3852 0.4783 -0.7892
vn 0.8042 0.4192 -0.4213
vn 0.1375 0.1908 0.9719
vn 0.4266 0.4095 -0.8064
vn 0.6666 0.3578 -0.6539
vn 0.7835 0.1314 0.6073
vn 0.4547 0.4390 0.7750
vn -0.2524 0.2629 -0.9312
vn 0.9268 0.3319 -0.1758
vn -0.9034 0.3332 -0.2698
vn -0.4129 0.0795 0.9073
vn -0.9472 0.1859 0.2611
vn -0.4287 0.0508 0.9020
vn 0.9196 0.0825 -0.3840
vn -0.8034 0.5874 -0.0977
vn 0.2690 0.7568 -0.5957
vn 0.6350 0.4074 0.6563
vn 0.5183 0.1565 -0.8407
vn 0.2419 0.2314 0.9423
vn -0.5711 0.5727 0.5881
vn 0.2606 0.4697 0.8435
vn 0.8849 0.4486 0.1254
vn 0.7841 0.5762 0.2304
vn 0.6248 0.4756 0.6192
vn 0.5830 0.2928 -0.7579
vn -0.6527 -0.1063 -0.7501
vn -0.8635 0.4383 -0.2496
vn 0.7540 0.1426 0.6412
vn 0.9549 0.1983 0.2209
vn 0.9189 0.2307 -0.3201
vn -0.4820 0.1533 0.8626
vn 0.4884 0.2839 -0.8252
vn 0.8667 0.2013 -0.4564
vn -0.2182 0.0097 -0.9759
vn 0.5370 0.4019 0.7417
vn 0.9559 0.2899 0.0461
vn 0.9082 0.1585 -0.3875
vn -0.0199 0.3815 0.9241
vn -0.2905 0.4405 -0.8495
vn -0.1733 0.0708 0.9823
vn -0.4175 0.1998 0.8865
vn 0.8440 0.1382 -0.5182
vn 0.8269 0.1395 -0.5448
vn -0.0903 0.0081 -0.9959
vn -0.6819 0.4505 -0.5763
vn -0.0845 0.0980 -0.9916
vn 0.4176 0.1559 -0.8952
vn 0.8123 0.1635 0.5598
vn -0.9095 0.1258 0.3963
vn 0.0818 0.0076 0.9966
vn 0.7589 0.1072 -0.6424
vn -0.8636 0.0420 -0.5023
vn 0.6008 0.2902 0.7448
vn -0.7813 0.3360 -0.5260
vn -0.8454 0.4418 0.3001
vn 0.2891 0.1343 -0.9478
vn 0.9500 0.2957 0.1003
vn -0.1556 0.5987 -0.7857
vn -0.5701 0.2569 -0.7803
vn -0.8031 0.3716 -0.4658
vn -0.8360 0.3635 -0.4110
vn 0.9198 0.0821 -0.3837
vn 0.5339 0.7133 -0.4541
vn 0.0586 0.3862 -0.9206
vn -0.5824 0.4390 0.6842
vn 0.0473 0.2664 0.9627
vn -0.7187 0.3604 0.5947
vn -0.6615 0.2449 0.7088
vn 0.1058 0.0217 0.9941
vn 0.4109 0.7079 -0.5745
vn 0.6985 0.4032 -0.5913
vn 0.1696 0.5149 -0.8403
vn -0.9585 0.2850 -0.0123
vn -0.6685 0.7077 0.2286
vn -0.2439 0.5221 -0.8173
vn -0.2581 0.1050 0.9604
vn 0.8565 0.2597 -0.4460
vn 0.8450 0.4885 0.2175
vn -0.5072 0.7229 -0.4693
vn 0.6937 0.6758 -0.2492
vn -0.0091 0.1387 0.9903
vn 0.9338 0.2115 0.2886
vn -0.6539 0.3978 0.6435
vn 0.4238 0.5114 0.7476
vn 0.6603 0.7263 -0.1910
vn -0.8276 0.5494 0.1152
vn 0.5141 0.6302 0.5818
vn 0.7737 0.1866 -0.6055
vn 0.7487 0.5537 -0.3646
vn 0.0569 0.4153 0.9079
vn -0.6512 0.6861 0.3245
vn -0.8045 0.0052 -0.5939
vn 0.4978 0.8561 0.1392
vn -0.9072 0.3809 -0.1785
vn 0.6617 0.5308 -0.5295
vn -0.0000 1.0000 -0.0000
vn 0.2746 0.2511 0.9282
vn 0.8441 0.3099 0.4376
vn 0.3724 0.8996 0.2280
vn 0.5751 0.6147 0.5399
vn 0.6279 0.4125 0.6600
vn 0.4478 0.8653 0.2253
vn -0.6850 0.0808 0.7241
vn 0.7809 0.1426 -0.6081
vn 0.4636 0.1980 -0.8636
vn 0.9491 0.3147 -0.0109
vn -0.6406 0.3034 -0.7053
vn 0.8197 0.4827 -0.3085
vn -0.9961 0.0852 0.0246
vn -0.7761 0.4916 0.3950
vn -0.9632 0.1778 0.2017
vn 0.9534 0.2979 0.0476
vn 0.9853 0.0531 0.1622
vn -0.6646 0.5310 -0.5257
vn 0.8818 0.2176 -0.4185
vn 0.8955 0.2815 -0.3447
vn 0.0441 0.5942 0.8031
vn 0.9264 0.3298 0.1818
vn 0.7955 0.1404 -0.5895
vn -0.8607 0.3762 -0.3429
vn 0.5226 0.8080 0.2719
vn 0.6243 0.0962 0.7753
vn 0.3835 0.3825 0.8406
vn 0.9289 0.3641 0.0675
vn 0.9432 0.2231 0.2462
vn 0.7551 0.6378 0.1517
vn -0.7429 -0.1197 -0.6587
vn -0.4511 0.7166 0.5320
vn -0.7210 0.6623 -0.2036
vn 0.8069 0.5345 0.2514
vn -0.8096 0.0990 0.5786
vn 0.4078 0.3263 0.8528
vn -0.5443 0.1760 0.8203
vn 0.9455 0.0690 0.3183
vn -0.6135 0.1345 -0.7781
vn -0.6538 0.1413 -0.7434
vn -0.0869 0.4473 0.8901
vn 0.0161 0.9146 -0.4039
vn 0.9567 0.2453 0.1569
vn -0.8666 0.4930 -0.0769
vn 0.3192 0.9375 0.1385
vn 0.2204 0.9310 -0.2908
vn -0.8710 0.2987 -0.3900
vn -0.5407 0.3842 -0.7483
vn 0.2034 0.5648 0.7998
vn 0.8977 0.3482 -0.2700
vn -0.9219 0.3543 0.1569
vn 0.8312 0.1304 -0.5405
vn -0.5314 0.3283 0.7810
vn 0.9022 0.3781 -0.2077
vn 0.4496 0.4071 -0.7951
vn -0.5042 0.2019 0.8397
vn -0.3094 0.3026 0.9015
vn -0.8053 0.1302 0.5784
vn 0.9864 -0.1526 -0.0611
vn -0.1134 0.2041 0.9724
vn 0.5397 0.5281 0.6556
vn 0.3624 0.2850 -0.8874
vn -0.0893 0.7861 -0.6116
vn 0.6551 0.0687 0.7524
vn -0.7494 0.3581 0.5569
vn 0.1862 0.7439 -0.6418
vn -0.1775 0.3005 -0.9371
vn -0.4387 0.1757 0.8813
vn 0.5676 0.4820 0.6674
vn -0.6583 0.3338 -0.6747
vn 0.9470 0.1882 0.2605
vn 0.3927 0.6244 -0.6752
vn -0.3207 0.4770 -0.8183
vn -0.7777 0.0755 0.6240
vn -0.8821 0.4486 0.1441
vn -0.8618 0.4027 0.3085
vn -0.6970 0.2533 0.6708
vn -0.7118 0.2260 -0.6650
vn -0.3433 0.7348 0.5849
vn -0.8906 0.2381 0.3874
vn 0.8645 0.4291 0.2617
vn -0.5153 0.2475 -0.8205
vn -0.2411 0.2089 0.9478
vn 0.7807 0.4390 0.4447
vn 0.6305 0.7682 0.1105
vn -0.8156 0.3791 0.4372
vn -0.8738 0.3142 -0.3711
vn 0.8100 -0.0357 0.5854
vn 0.6542 0.3330 0.6791
vn 0.8987 0.3582 0.2532
vn -0.9654 0.0611 0.2535
vn -0.9170 0.1593 0.3656
vn 0.9933 0.0729 0.0898
vn -0.9808 0.1500 0.1243
vn -0.9787 0.1892 0.0799
vn -0.9430 0.2532 0.2158
vn 0.1532 0.8710 -0.4667
vn -0.4258 0.5925 0.6838
vn 0.6910 0.4723 -0.5472
vn -0.7334 0.3699 -0.5703
vn -0.6642 0.3548 -0.6580
vn 0.5447 0.3957 0.7394
vn 0.6962 0.1423 0.7036
vn -0.9810 0.1279 -0.1457
vn 0.0568 0.9250 0.3757
vn -0.6659 0.4077 0.6248
vn 0.0864 0.4940 -0.8651
vn 0.3910 0.3124 -0.8657
vn -0.6896 0.2747 -0.6701
vn 0.4598 0.1170 -0.8803
vn -0.7033 0.2708 0.6573
vn 0.1948 0.3235 -0.9260
vn 0.9349 0.3401 0.1011
vn -0.9267 0.2639 0.2676
vn 0.7115 0.2215 -0.6669
vn -0.7436 0.6649 0.0705
vn -0.5794 0.8134 -0.0513
vn -0.0831 0.7473 0.6593
vn -0.8892 0.3147 -0.3322
vn -0.3044 0.3984 -0.8652
vn -0.8833 0.2141 -0.4170
vn -0.3876 0.3370 -0.8580
vn -0.5386 0.1304 0.8324
vn -0.9881 0.1335 0.0766
vn 0.1118 0.9931 0.0345
vn 0.0252 0.5752 -0.8177
vn -0.8003 0.2314 -0.5531
vn 0.5327 0.2895 -0.7952
vn 0.9982 0.0331 -0.0502
vn 0.0616 0.3878 -0.9197
vn 0.6483 0.3504 0.6760
vn 0.9871 0.1538 0.0454
vn 0.9339 0.3503 0.0722
vn -0.5954 0.1417 -0.7908
vn 0.9608 0.0368 0.2747
vn 0.9738 0.1409 -0.1783
vn 0.3605 0.6823 -0.6360
vn -0.0226 0.2986 0.9541
vt 0.015393 0.015448
vt 0.015104 0.017018
vt 0.015202 0.017633
vt 0.023323 0.024943
vt 0.022903 0.023360
vt 0.022716 0.025080
vt 0.017967 0.016178
vt 0.017422 0.017013
vt 0.018693 0.018515
vt 0.016163 0.013249
vt 0.016752 0.012006
vt 0.016459 0.017066
vt 0.015787 0.018514
vt 0.016439 0.018514
vt 0.026730 0.019503
vt 0.027487 0.020126
vt 0.027217 0.017688
vt 0.030240 0.031124
vt 0.030296 0.032098
vt 0.031033 0.030651
vt 0.025431 0.025074
vt 0.025984 0.023261
vt 0.025014 0.024217
vt 0.025285 0.014226
vt 0.024592 0.012341
vt 0.023477 0.010340
vt 0.023676 0.011788
vt 0.030794 0.014935
vt 0.030231 0.012205
vt 0.029696 0.013925
vt 0.023972 0.021417
vt 0.024217 0.023103
vt 0.026796 0.025078
vt 0.027687 0.023826
vt 0.024042 0.014244
vt 0.024538 0.013603
vt 0.035137 0.028912
vt 0.034463 0.030449
vt 0.035770 0.028956
vt 0.020861 0.021396
vt 0.020513 0.020552
vt 0.019936 0.021500
vt 0.017226 0.009668
vt 0.018012 0.016339
vt 0.027423 0.009668
vt 0.027296 0.013895
vt 0.027529 0.016383
vt 0.022301 0.015755
vt 0.022699 0.013644
vt 0.021843 0.012777
vt 0.017035 0.018514
vt 0.037232 0.017789
vt 0.037145 0.017484
vt 0.036512 0.017038
vt 0.017653 0.023065
vt 0.017820 0.022445
vt 0.016707 0.020160
vt 0.034278 0.009816
vt 0.033981 0.013539
vt 0.034696 0.009668
vt 0.022537 0.013895
vt 0.023156 0.012512
vt 0.027937 0.017306
vt 0.027143 0.017011
vt 0.025984 0.029056
vt 0.025841 0.027974
vt 0.025328 0.028162
vt 0.018875 0.026150
vt 0.019541 0.024634
vt 0.018784 0.024767
vt 0.025368 0.018864
vt 0.024785 0.017932
vt 0.024017 0.019175
vt 0.020103 0.023453
vt 0.019451 0.023790
vt 0.030645 0.032380
vt 0.031705 0.030682
vt 0.027208 0.025079
vt 0.036059 0.027386
vt 0.026367 0.026855
vt 0.027680 0.027768
vt 0.027164 0.026387
vt 0.022410 0.009668
vt 0.021548 0.011332
vt 0.018762 0.032206
vt 0.019782 0.031368
vt 0.019736 0.029406
vt 0.022552 0.021891
vt 0.021244 0.025083
vt 0.031627 0.012496
vt 0.032424 0.014022
vt 0.031970 0.012111
vt 0.021227 0.028962
vt 0.021694 0.027283
vt 0.020871 0.026520
vt 0.036488 0.020499
vt 0.037016 0.019702
vt 0.037232 0.018172
vt 0.019294 0.023062
vt 0.018638 0.022051
vt 0.018085 0.023064
vt 0.022352 0.017723
vt 0.022995 0.018110
vt 0.024558 0.016884
vt 0.016843 0.023067
vt 0.015494 0.021258
vt 0.015198 0.023070
vt 0.032529 0.028998
vt 0.034003 0.028690
vt 0.032810 0.027386
vt 0.036002 0.016286
vt 0.035250 0.018179
vt 0.035881 0.018874
vt 0.035667 0.014594
vt 0.035250 0.014447
vt 0.023604 0.015392
vt 0.026367 0.023630
vt 0.026583 0.022100
vt 0.027986 0.018241
vt 0.027987 0.019596
vt 0.028697 0.019820
vt 0.016488 0.014977
vt 0.032807 0.013159
vt 0.033407 0.014044
vt 0.033474 0.012853
vt 0.028286 0.011332
vt 0.028154 0.015359
vt 0.021935 0.025058
vt 0.031741 0.014461
vt 0.017743 0.018897
vt 0.019313 0.014407
vt 0.033116 0.017518
vt 0.033836 0.017104
vt 0.033578 0.015318
vt 0.025974 0.018528
vt 0.025784 0.016200
vt 0.036314 0.022328
vt 0.037232 0.022330
vt 0.036803 0.020882
vt 0.033844 0.018237
vt 0.034404 0.019208
vt 0.034695 0.030449
vt 0.035868 0.029570
vt 0.017401 0.029406
vt 0.016963 0.031611
vt 0.017606 0.031224
vt 0.022433 0.020373
vt 0.022918 0.021021
vt 0.023513 0.021022
vt 0.027878 0.025080
vt 0.028864 0.023546
vt 0.023469 0.025078
vt 0.035078 0.019434
vt 0.014942 0.023070
vt 0.023253 0.021404
vt 0.030638 0.028329
vt 0.031082 0.027613
vt 0.021012 0.025465
vt 0.031474 0.028996
vt 0.032357 0.030764
vt 0.033439 0.032380
vt 0.033489 0.031759
vt 0.022915 0.028122
vt 0.023931 0.029003
vt 0.023416 0.027284
vt 0.024451 0.025076
vt 0.021681 0.030873
vt 0.021865 0.029483
vt 0.021579 0.017515
vt 0.021512 0.016201
vt 0.023155 0.029001
vt 0.021827 0.020709
vt 0.036935 0.022712
vt 0.036314 0.024435
vt 0.036786 0.024410
vt 0.016542 0.022089
vt 0.015993 0.020077
vt 0.021244 0.019778
vt 0.021247 0.017316
vt 0.020967 0.013445
vt 0.022307 0.019576
vt 0.016401 0.027786
vt 0.017083 0.026315
vt 0.016447 0.027625
vt 0.023211 0.031034
vt 0.023137 0.029914
vt 0.022510 0.030657
vt 0.027723 0.030618
vt 0.027954 0.029794
vt 0.027007 0.030150
vt 0.020585 0.015323
vt 0.020007 0.016948
vt 0.020421 0.018514
vt 0.036384 0.016139
vt 0.019703 0.018949
vt 0.019678 0.018897
vt 0.019676 0.018920
vt 0.025142 0.025075
vt 0.018044 0.028764
vt 0.018551 0.025610
vt 0.027357 0.029167
vt 0.026367 0.029466
vt 0.027483 0.031096
vt 0.032659 0.021158
vt 0.032527 0.025185
vt 0.032871 0.023750
vt 0.027571 0.029301
vt 0.031614 0.009668
vt 0.028356 0.022020
vt 0.014942 0.027552
vt 0.015607 0.028081
vt 0.015101 0.025854
vt 0.028939 0.016495
vt 0.028602 0.016776
vt 0.015886 0.016796
vt 0.014942 0.018514
vt 0.023838 0.017154
vt 0.036218 0.012921
vt 0.035510 0.012225
vt 0.035555 0.013226
vt 0.016111 0.011670
vt 0.035078 0.011265
vt 0.035403 0.024515
vt 0.034463 0.020960
vt 0.035635 0.027003
vt 0.022465 0.029385
vt 0.015904 0.030543
vt 0.015107 0.031051
vt 0.016228 0.031499
vt 0.029613 0.014936
vt 0.030754 0.024291
vt 0.030265 0.022367
vt 0.030182 0.026524
vt 0.019822 0.019576
vt 0.030790 0.011123
vt 0.028659 0.028153
vt 0.028337 0.030996
vt 0.029425 0.032380
vt 0.030368 0.018628
vt 0.030884 0.018377
vt 0.030086 0.015318
vt 0.033582 0.028947
vt 0.036992 0.014447
vt 0.033737 0.018213
vt 0.034081 0.029002
vt 0.031042 0.020138
vt 0.025042 0.026520
vt 0.019965 0.018514
vt 0.031276 0.027003
vt 0.031312 0.026118
vt 0.035875 0.009668
vt 0.034081 0.027003
vt 0.033239 0.023271
vt 0.035704 0.032086
vt 0.036059 0.030831
vt 0.034776 0.031974
vt 0.024654 0.026646
vt 0.022642 0.029000
vt 0.017662 0.023453
vt 0.030712 0.026698
vt 0.036401 0.017121
vt 0.026356 0.010340
vt 0.024313 0.025465
vt 0.031125 0.021647
vt 0.031627 0.020582
vt 0.022247 0.025465
vt 0.036366 0.024434
vt 0.018379 0.031016
vt 0.020077 0.018514
vt 0.029613 0.017136
vt 0.029871 0.018922
vt 0.019826 0.022659
vt 0.033604 0.026307
vt 0.021014 0.017821
vt 0.026550 0.025465
vt 0.027729 0.027103
vt 0.014942 0.028464
vt 0.017331 0.014868
vt 0.032144 0.025450
vt 0.027659 0.028153
vt 0.029231 0.016481
vt 0.016611 0.031167
vt 0.036868 0.026253
vt 0.037027 0.024817
vt 0.036368 0.026427
vt 0.023931 0.030958
vt 0.037027 0.024410
vt 0.030439 0.021026
vt 0.028847 0.027770
vt 0.032088 0.032068
vt 0.015301 0.031611
vt 0.036120 0.014064
vt 0.029613 0.022029
vt 0.029734 0.025088
vt 0.025730 0.020531
vt 0.024002 0.019576
vt 0.023896 0.020618
vt 0.032009 0.018440
vt 0.029231 0.025083
vt 0.015373 0.019178
vt 0.029808 0.032084
vt 0.025858 0.030776
s 0
usemtl material.002
f 1/1/1 2/2/1 3/3/1
f 4/4/2 5/5/2 6/6/2
f 7/7/3 8/8/3 9/9/3
f 10/10/4 11/7/4 12/11/4
f 13/12/5 14/13/5 15/14/5
f 16/15/6 17/16/6 18/17/6
f 19/18/7 20/19/7 21/20/7
f 22/21/8 23/22/8 24/23/8
f 25/24/9 26/25/9 27/26/9
f 28/27/10 29/24/10 30/26/10
f 31/28/11 32/29/11 33/30/11
f 34/23/12 35/31/12 36/32/12
f 37/33/13 38/34/13 39/16/13
f 40/35/14 41/36/14 42/27/14
f 43/37/15 44/38/15 45/39/15
f 46/40/16 47/41/16 48/42/16
f 49/43/17 50/11/17 51/44/17
f 52/45/18 53/46/18 54/47/18
f 55/48/19 56/49/19 57/50/19
f 58/8/20 59/51/20 60/9/20
f 61/52/21 62/53/21 63/54/21
f 64/55/22 65/56/22 66/57/22
f 67/58/23 68/59/23 69/60/23
f 70/61/24 71/62/24 72/26/24
f 73/63/25 74/47/25 75/64/25
f 76/65/26 77/66/26 78/67/26
f 79/68/27 80/69/27 81/70/27
f 82/71/28 83/72/28 84/73/28
f 85/69/29 86/74/29 87/75/29
s 1
f 88/76/30 89/77/30 90/20/30
s 0
f 91/78/31 92/34/31 93/33/31
f 94/79/32 95/37/32 96/39/32
f 97/80/33 98/81/33 99/82/33
f 100/50/34 101/83/34 102/84/34
f 103/85/35 104/86/35 105/87/35
f 106/88/36 107/89/36 108/5/36
f 109/90/37 110/91/37 111/92/37
f 112/93/38 113/94/38 114/95/38
f 115/96/39 116/97/39 117/98/39
f 118/99/40 119/100/40 120/101/40
f 121/102/41 122/103/41 123/48/41
f 124/35/42 125/104/42 126/36/42
f 127/105/43 128/106/43 129/107/43
f 130/108/44 131/109/44 132/110/44
f 133/111/45 134/112/45 135/113/45
f 136/114/46 137/115/46 138/112/46
f 139/103/47 140/116/47 141/62/47
f 142/117/48 143/33/48 144/118/48
f 145/119/49 146/120/49 147/121/49
s 1
f 148/1/50 149/3/50 150/122/50
s 0
f 151/123/51 152/124/51 153/125/51
f 154/125/52 155/59/52 156/58/52
f 157/103/53 158/62/53 159/49/53
f 160/126/54 161/45/54 162/127/54
f 163/5/55 164/128/55 165/6/55
f 166/129/56 167/91/56 168/90/56
f 169/10/57 170/1/57 171/122/57
f 172/100/58 173/130/58 174/56/58
f 175/131/59 176/7/59 177/9/59
f 178/8/60 179/12/60 180/14/60
f 181/132/61 182/133/61 183/134/61
f 184/135/62 185/136/62 186/72/62
f 187/137/63 188/138/63 189/139/63
f 190/133/64 191/140/64 192/141/64
f 193/142/65 194/143/65 195/38/65
f 196/144/66 197/145/66 198/146/66
f 199/50/67 200/49/67 201/83/67
s 1
f 202/147/68 203/148/68 204/149/68
s 0
f 205/34/69 206/150/69 207/151/69
f 208/4/70 209/6/70 210/152/70
f 211/113/71 212/112/71 213/153/71
f 214/107/72 215/106/72 216/154/72
f 217/32/73 218/31/73 219/4/73
f 220/31/74 221/155/74 222/5/74
f 223/156/75 224/110/75 225/157/75
f 226/95/76 227/94/76 228/158/76
f 229/159/77 230/108/77 231/110/77
f 232/7/78 233/122/78 234/8/78
f 235/160/79 236/161/79 237/162/79
f 238/163/80 239/164/80 240/165/80
f 241/152/81 242/166/81 243/32/81
f 244/167/82 245/168/82 246/93/82
f 247/169/83 248/48/83 249/170/83
f 250/163/84 251/171/84 252/164/84
f 253/172/85 254/148/85 255/147/85
f 256/23/86 257/32/86 258/166/86
f 259/103/87 260/49/87 261/48/87
f 262/173/88 263/174/88 264/175/88
f 265/176/89 266/177/89 267/106/89
f 268/172/90 269/147/90 270/178/90
f 271/8/91 272/14/91 273/51/91
f 274/105/92 275/176/92 276/106/92
f 277/179/93 278/170/93 279/180/93
f 280/147/94 281/149/94 282/181/94
f 283/182/95 284/183/95 285/184/95
f 286/185/96 287/186/96 288/187/96
f 289/119/97 290/16/97 291/120/97
f 292/188/98 293/189/98 294/190/98
f 295/191/99 296/192/99 297/193/99
f 298/54/100 299/53/100 300/194/100
f 301/195/101 302/196/101 303/197/101
f 304/198/102 305/21/102 306/23/102
f 307/199/103 308/68/103 309/200/103
f 310/201/104 311/202/104 312/190/104
f 313/55/105 314/176/105 315/105/105
f 316/55/106 317/101/106 318/56/106
f 319/190/107 320/203/107 321/188/107
f 322/204/108 323/205/108 324/206/108
f 325/189/109 326/207/109 327/201/109
f 328/90/110 329/92/110 330/208/110
f 331/62/111 332/35/111 333/27/111
f 334/16/112 335/209/112 336/120/112
f 337/210/113 338/211/113 339/212/113
f 340/45/114 341/47/114 342/127/114
f 343/213/115 344/127/115 345/214/115
f 346/215/116 347/216/116 348/13/116
f 349/103/117 350/217/117 351/116/117
f 352/170/118 353/50/118 354/180/118
f 355/39/119 356/38/119 357/143/119
f 358/93/120 359/168/120 360/94/120
f 361/169/121 362/102/121 363/48/121
f 364/218/122 365/219/122 366/220/122
f 367/217/123 368/73/123 369/104/123
f 370/104/124 371/72/124 372/36/124
f 373/221/125 374/10/125 375/11/125
f 376/189/126 377/201/126 378/190/126
f 379/217/127 380/35/127 381/116/127
f 382/55/128 383/57/128 384/176/128
f 385/62/129 386/27/129 387/26/129
f 388/220/130 389/219/130 390/222/130
f 391/70/131 392/69/131 393/75/131
f 394/223/132 395/224/132 396/225/132
f 397/186/133 398/226/133 399/187/133
f 400/227/134 401/228/134 402/229/134
f 403/230/135 404/28/135 405/30/135
f 406/231/136 407/232/136 408/233/136
f 409/56/137 410/130/137 411/57/137
f 412/41/138 413/234/138 414/42/138
f 415/129/139 416/90/139 417/235/139
f 418/236/140 419/237/140 420/238/140
f 421/239/141 422/240/141 423/241/141
f 424/57/142 425/177/142 426/176/142
f 427/108/143 428/242/143 429/109/143
f 430/194/144 431/53/144 432/243/144
f 433/140/145 434/244/145 435/141/145
f 436/211/146 437/182/146 438/184/146
f 439/109/147 440/242/147 441/245/147
f 442/43/148 443/221/148 444/11/148
f 445/239/149 446/246/149 447/240/149
f 448/67/150 449/66/150 450/247/150
f 451/28/151 452/129/151 453/29/151
f 454/9/152 455/248/152 456/192/152
f 457/73/153 458/72/153 459/104/153
f 460/231/154 461/249/154 462/250/154
f 463/235/155 464/90/155 465/208/155
f 466/15/156 467/118/156 468/16/156
f 469/111/157 470/114/157 471/112/157
f 472/218/158 473/251/158 474/219/158
f 475/252/159 476/253/159 477/206/159
f 478/254/160 479/255/160 480/256/160
f 481/198/161 482/23/161 483/166/161
f 484/67/162 485/247/162 486/257/162
f 487/132/163 488/140/163 489/133/163
f 490/163/164 491/258/164 492/171/164
f 493/183/165 494/259/165 495/184/165
f 496/249/166 497/231/166 498/260/166
f 499/261/167 500/52/167 501/54/167
f 502/120/168 503/209/168 504/121/168
f 505/47/169 506/262/169 507/64/169
f 508/257/170 509/247/170 510/263/170
f 511/246/171 512/264/171 513/265/171
f 514/180/172 515/50/172 516/84/172
f 517/159/173 518/110/173 519/156/173
f 520/266/174 521/163/174 522/165/174
f 523/174/101 524/267/101 525/175/101
f 526/253/175 527/204/175 528/206/175
f 529/144/176 530/146/176 531/268/176
f 532/122/177 533/12/177 534/8/177
f 535/192/178 536/248/178 537/269/178
f 538/270/179 539/271/179 540/239/179
f 541/40/180 542/42/180 543/272/180
f 544/206/181 545/205/181 546/273/181
f 547/200/182 548/68/182 549/70/182
f 550/16/183 551/34/183 552/209/183
f 553/31/184 554/5/184 555/4/184
f 556/179/185 557/169/185 558/170/185
f 559/169/186 560/179/186 561/274/186
f 562/122/187 563/215/187 564/12/187
f 565/127/188 566/47/188 567/63/188
f 568/116/189 569/35/189 570/62/189
f 571/80/190 572/82/190 573/275/190
f 574/276/191 575/82/191 576/81/191
f 577/277/192 578/228/192 579/227/192
s 1
f 580/12/193 581/215/193 582/13/193
s 0
f 583/104/194 584/35/194 585/217/194
f 586/44/195 587/11/195 588/278/195
f 589/279/196 590/231/196 591/250/196
f 592/191/197 593/131/197 594/192/197
f 595/201/198 596/280/198 597/202/198
f 598/281/199 599/127/199 600/213/199
f 601/211/200 602/184/200 603/212/200
f 604/231/201 605/233/201 606/260/201
f 607/282/202 608/145/202 609/144/202
s 1
f 610/101/203 611/100/203 612/56/203
s 0
f 613/283/204 614/284/204 615/285/204
f 616/10/205 617/122/205 618/7/205
f 619/286/206 620/186/206 621/185/206
f 622/173/207 623/175/207 624/287/207
f 625/34/208 626/151/208 627/209/208
f 628/150/209 629/34/209 630/78/209
f 631/271/210 632/288/210 633/239/210
f 634/124/211 635/59/211 636/125/211
f 637/32/212 638/4/212 639/152/212
f 640/118/213 641/33/213 642/16/213
f 643/73/214 644/217/214 645/103/214
f 646/192/215 647/131/215 648/9/215
f 649/276/216 650/81/216 651/289/216
f 652/160/217 653/290/217 654/161/217
f 655/229/218 656/228/218 657/291/218
f 658/292/219 659/218/219 660/220/219
f 661/127/220 662/63/220 663/214/220
s 1
f 664/246/221 665/288/221 666/264/221
s 0
f 667/293/222 668/294/222 669/232/222
f 670/239/223 671/288/223 672/246/223
f 673/155/224 674/88/224 675/5/224
f 676/232/225 677/294/225 678/233/225
f 679/295/226 680/296/226 681/297/226
f 682/298/227 683/140/227 684/132/227
f 685/192/228 686/269/228 687/193/228
f 688/19/229 689/76/229 690/20/229
f 691/170/230 692/48/230 693/50/230
f 694/299/231 695/151/231 696/150/231
f 697/177/232 698/300/232 699/106/232
f 700/129/233 701/235/233 702/29/233
f 703/280/234 704/201/234 705/207/234
f 706/270/235 707/239/235 708/241/235
f 709/49/236 710/62/236 711/83/236
f 712/72/237 713/136/237 714/36/237
s 1
f 715/301/238 716/19/238 717/18/238
s 0
f 718/302/239 719/65/239 720/67/239
