# Blender 3.6.0
# www.blender.org
mtllib rock2.mtl
o SP_Mountain02_Mat
v 6.686876 59.577065 15.637843
v 3.073553 40.494999 24.381100
v 10.256982 55.323986 -1.850514
v 13.337653 38.315334 -31.354191
v 11.234140 41.324665 -2.829837
v 26.020237 32.801685 7.092954
v -11.883250 31.315292 -45.400242
v 20.313267 35.077732 -36.415104
v 25.509285 28.470078 -38.560963
v -17.810907 35.850456 -39.120762
v 13.337653 38.315334 -31.354191
v 20.313267 35.077732 -36.415104
v -11.883250 31.315292 -45.400242
v -49.055454 31.589146 -34.850163
v -17.810907 35.850456 -39.120762
v -11.883250 31.315292 -45.400242
v -17.810907 35.850456 -39.120762
v 20.313267 35.077732 -36.415104
v 10.024844 34.462067 28.960264
v 3.073553 40.494999 24.381100
v -11.864511 35.449177 33.395184
v -14.236234 95.483856 -3.034202
v -24.661865 84.246971 -11.048835
v -23.697548 82.763123 1.595666
v -12.357293 21.728966 42.540390
v -10.572607 -0.000012 48.903931
v 13.905801 22.937248 38.637390
v -6.039964 86.193459 -10.052833
v -14.236234 95.483856 -3.034202
v -10.142905 81.142937 6.060937
v -16.278883 61.491070 -28.514469
v -12.224803 64.697052 -21.890127
v 5.754396 49.784794 -23.247013
v -34.775883 65.189705 -20.937231
v -29.129181 71.192368 -14.485479
v -12.224803 64.697052 -21.890127
v -16.278883 61.491070 -28.514469
v -37.914803 60.578388 -24.265308
v -34.775883 65.189705 -20.937231
v -16.278883 61.491070 -28.514469
v -34.775883 65.189705 -20.937231
v -12.224803 64.697052 -21.890127
v 13.709809 12.864504 38.829391
v -10.572607 -0.000012 48.903931
v 56.918312 -0.000014 20.374420
v -41.115677 18.068439 23.150694
v -43.337105 -0.000014 25.808792
v -12.357293 21.728966 42.540390
v 6.084926 65.606583 -12.477986
v 4.637053 61.313854 -17.020237
v 1.969564 72.727806 -19.838049
v 10.256982 55.323986 -1.850514
v 5.754396 49.784794 -23.247013
v 4.637053 61.313854 -17.020237
v -14.632899 69.411827 -16.645590
v -15.008162 77.124329 -15.131842
v 1.969564 72.727806 -19.838049
v -26.906170 75.375816 -12.940695
v -24.661865 84.246971 -11.048835
v -15.008162 77.124329 -15.131842
v -14.632899 69.411827 -16.645590
v -29.129181 71.192368 -14.485479
v -26.906170 75.375816 -12.940695
v -14.632899 69.411827 -16.645590
v -26.906170 75.375816 -12.940695
v -15.008162 77.124329 -15.131842
v -14.213678 73.390915 16.771799
v -10.142905 81.142937 6.060937
v -23.631256 67.906563 6.603587
v -50.662647 19.372992 -5.591127
v -55.742180 -0.000017 -7.504395
v -41.115677 18.068439 23.150694
v 0.335930 67.415215 21.363504
v -10.142905 81.142937 6.060937
v -14.213678 73.390915 16.771799
v -37.925041 51.197678 -4.798908
v -46.847874 34.247345 -5.306658
v -33.548317 53.458168 16.356594
v -23.631256 67.906563 6.603587
v -23.697548 82.763123 1.595666
v -34.088009 73.525772 -3.299642
v -37.925041 51.197678 -4.798908
v -39.823349 50.311684 -25.859547
v -41.133064 39.617958 -27.870258
v -37.925041 51.197678 -4.798908
v -37.914803 60.578388 -24.265308
v -39.823349 50.311684 -25.859547
v 6.686876 59.577065 15.637843
v 4.038417 71.720276 -5.345708
v 0.335930 67.415215 21.363504
v -46.847874 34.247345 -5.306658
v -45.335709 35.367626 -31.565538
v -49.055454 31.589146 -34.850163
v -46.847874 34.247345 -5.306658
v -41.133064 39.617958 -27.870258
v -45.335709 35.367626 -31.565538
v -16.278883 61.491070 -28.514469
v -39.823349 50.311684 -25.859547
v -37.914803 60.578388 -24.265308
v -17.272657 46.732304 -25.480579
v -41.133064 39.617958 -27.870258
v -39.823349 50.311684 -25.859547
v -16.278883 61.491070 -28.514469
v 5.754396 49.784794 -23.247013
v -17.272657 46.732304 -25.480579
v -16.278883 61.491070 -28.514469
v -17.272657 46.732304 -25.480579
v -39.823349 50.311684 -25.859547
v -17.810907 35.850456 -39.120762
v -17.747242 44.983135 -31.783833
v 13.337653 38.315334 -31.354191
v -45.335709 35.367626 -31.565538
v -41.133064 39.617958 -27.870258
v -17.747242 44.983135 -31.783833
v -17.810907 35.850456 -39.120762
v -49.055454 31.589146 -34.850163
v -45.335709 35.367626 -31.565538
v -17.810907 35.850456 -39.120762
v -45.335709 35.367626 -31.565538
v -17.747242 44.983135 -31.783833
v -33.548317 53.458168 16.356594
v -36.998768 32.119537 19.355238
v -12.391143 44.905151 22.840206
v 11.234140 41.324665 -2.829837
v 3.073553 40.494999 24.381100
v 10.024844 34.462067 28.960264
v 26.020237 32.801685 7.092954
v 20.313267 35.077732 -36.415104
v 13.337653 38.315334 -31.354191
v 26.020237 32.801685 7.092954
v 25.509285 28.470078 -38.560963
v 20.313267 35.077732 -36.415104
v 4.038417 71.720276 -5.345708
v -3.716373 77.417694 -12.812994
v -6.039964 86.193459 -10.052833
v 4.038417 71.720276 -5.345708
v 1.969564 72.727806 -19.838049
v -3.716373 77.417694 -12.812994
v 6.686876 59.577065 15.637843
v 0.335930 67.415215 21.363504
v 3.073553 40.494999 24.381100
v 6.084926 65.606583 -12.477986
v 4.038417 71.720276 -5.345708
v 10.256982 55.323986 -1.850514
v -12.224803 64.697052 -21.890127
v 4.637053 61.313854 -17.020237
v 5.754396 49.784794 -23.247013
v -8.127531 68.397385 -20.489019
v 1.969564 72.727806 -19.838049
v 4.637053 61.313854 -17.020237
v -12.224803 64.697052 -21.890127
v -29.129181 71.192368 -14.485479
v -14.632899 69.411827 -16.645590
v -12.224803 64.697052 -21.890127
v -14.632899 69.411827 -16.645590
v -8.127531 68.397385 -20.489019
v -34.088009 73.525772 -3.299642
v -34.775883 65.189705 -20.937231
v -37.914803 60.578388 -24.265308
v -34.088009 73.525772 -3.299642
v -29.129181 71.192368 -14.485479
v -34.775883 65.189705 -20.937231
v -23.631256 67.906563 6.603587
v -34.088009 73.525772 -3.299642
v -37.925041 51.197678 -4.798908
v -14.213678 73.390915 16.771799
v -23.631256 67.906563 6.603587
v -33.548317 53.458168 16.356594
v -12.391143 44.905151 22.840206
v -11.864511 35.449177 33.395184
v 3.073553 40.494999 24.381100
v 6.686876 59.577065 15.637843
v 10.256982 55.323986 -1.850514
v 4.038417 71.720276 -5.345708
v -37.925041 51.197678 -4.798908
v -34.088009 73.525772 -3.299642
v -37.914803 60.578388 -24.265308
v -36.998768 32.119537 19.355238
v -11.864511 35.449177 33.395184
v -12.391143 44.905151 22.840206
v -46.847874 34.247345 -5.306658
v -36.998768 32.119537 19.355238
v -33.548317 53.458168 16.356594
v -41.133064 39.617958 -27.870258
v -46.847874 34.247345 -5.306658
v -37.925041 51.197678 -4.798908
v 46.922436 17.774891 14.670959
v 56.918312 -0.000014 20.374420
v 46.551537 14.408917 -28.931322
v 11.234140 41.324665 -2.829837
v 9.978787 44.555965 -27.839939
v 5.754396 49.784794 -23.247013
v 11.234140 41.324665 -2.829837
v 13.337653 38.315334 -31.354191
v 9.978787 44.555965 -27.839939
v 11.234140 41.324665 -2.829837
v 10.024844 34.462067 28.960264
v 26.020237 32.801685 7.092954
v 10.256982 55.323986 -1.850514
v 11.234140 41.324665 -2.829837
v 5.754396 49.784794 -23.247013
v -6.039964 86.193459 -10.052833
v -10.142905 81.142937 6.060937
v 4.038417 71.720276 -5.345708
v -15.008162 77.124329 -15.131842
v -3.716373 77.417694 -12.812994
v 1.969564 72.727806 -19.838049
v -15.454316 85.430168 -11.492972
v -6.039964 86.193459 -10.052833
v -3.716373 77.417694 -12.812994
v -15.008162 77.124329 -15.131842
v -24.661865 84.246971 -11.048835
v -15.454316 85.430168 -11.492972
v -15.008162 77.124329 -15.131842
v -15.454316 85.430168 -11.492972
v -3.716373 77.417694 -12.812994
v -28.375431 74.822571 -7.705572
v -26.906170 75.375816 -12.940695
v -29.129181 71.192368 -14.485479
v -23.697548 82.763123 1.595666
v -24.661865 84.246971 -11.048835
v -26.906170 75.375816 -12.940695
v 4.038417 71.720276 -5.345708
v -10.142905 81.142937 6.060937
v 0.335930 67.415215 21.363504
v -10.142905 81.142937 6.060937
v -23.697548 82.763123 1.595666
v -23.631256 67.906563 6.603587
v -33.548317 53.458168 16.356594
v -23.631256 67.906563 6.603587
v -37.925041 51.197678 -4.798908
v -17.272657 46.732304 -25.480579
v -17.747242 44.983135 -31.783833
v -41.133064 39.617958 -27.870258
v 9.978787 44.555965 -27.839939
v 13.337653 38.315334 -31.354191
v -17.747242 44.983135 -31.783833
v -17.272657 46.732304 -25.480579
v 5.754396 49.784794 -23.247013
v 9.978787 44.555965 -27.839939
v -17.272657 46.732304 -25.480579
v 9.978787 44.555965 -27.839939
v -17.747242 44.983135 -31.783833
v 3.073553 40.494999 24.381100
v 11.234140 41.324665 -2.829837
v 10.256982 55.323986 -1.850514
v -12.391143 44.905151 22.840206
v 3.073553 40.494999 24.381100
v 0.335930 67.415215 21.363504
v -33.548317 53.458168 16.356594
v -12.391143 44.905151 22.840206
v 0.335930 67.415215 21.363504
v 0.335930 67.415215 21.363504
v -14.213678 73.390915 16.771799
v -33.548317 53.458168 16.356594
v -34.088009 73.525772 -3.299642
v -23.697548 82.763123 1.595666
v -28.375431 74.822571 -7.705572
v 46.551537 14.408917 -28.931322
v -11.883250 31.315292 -45.400242
v 25.509285 28.470078 -38.560963
v -58.899502 19.164797 -43.221588
v -49.055454 31.589146 -34.850163
v -11.883250 31.315292 -45.400242
v 46.551537 14.408917 -28.931322
v -58.899502 19.164797 -43.221588
v -11.883250 31.315292 -45.400242
v -58.899502 19.164797 -43.221588
v -50.662647 19.372992 -5.591127
v -46.847874 34.247345 -5.306658
v 13.905801 22.937248 38.637390
v 46.922436 17.774891 14.670959
v 26.020237 32.801685 7.092954
v -12.357293 21.728966 42.540390
v 13.905801 22.937248 38.637390
v 10.024844 34.462067 28.960264
v -41.115677 18.068439 23.150694
v -12.357293 21.728966 42.540390
v -11.864511 35.449177 33.395184
v -50.662647 19.372992 -5.591127
v -41.115677 18.068439 23.150694
v -36.998768 32.119537 19.355238
v 46.922436 17.774891 14.670959
v 46.551537 14.408917 -28.931322
v 25.509285 28.470078 -38.560963
v 55.407963 -0.000019 -33.948517
v -63.347557 -0.000020 -48.551788
v -58.899502 19.164797 -43.221588
v -63.347557 -0.000020 -48.551788
v -55.742180 -0.000017 -7.504395
v -50.662647 19.372992 -5.591127
v 13.709809 12.864504 38.829391
v 56.918312 -0.000014 20.374420
v 46.922436 17.774891 14.670959
v -10.572607 -0.000012 48.903931
v 13.709809 12.864504 38.829391
v 13.905801 22.937248 38.637390
v -43.337105 -0.000014 25.808792
v -10.572607 -0.000012 48.903931
v -12.357293 21.728966 42.540390
v -55.742180 -0.000017 -7.504395
v -43.337105 -0.000014 25.808792
v -41.115677 18.068439 23.150694
v 56.918312 -0.000014 20.374420
v 55.407963 -0.000019 -33.948517
v 46.551537 14.408917 -28.931322
v -14.236234 95.483856 -3.034202
v -15.454316 85.430168 -11.492972
v -24.661865 84.246971 -11.048835
v -14.236234 95.483856 -3.034202
v -6.039964 86.193459 -10.052833
v -15.454316 85.430168 -11.492972
v -14.236234 95.483856 -3.034202
v -23.697548 82.763123 1.595666
v -10.142905 81.142937 6.060937
v -8.127531 68.397385 -20.489019
v -14.632899 69.411827 -16.645590
v 1.969564 72.727806 -19.838049
v -8.127531 68.397385 -20.489019
v 4.637053 61.313854 -17.020237
v -12.224803 64.697052 -21.890127
v -28.375431 74.822571 -7.705572
v -23.697548 82.763123 1.595666
v -26.906170 75.375816 -12.940695
v -28.375431 74.822571 -7.705572
v -29.129181 71.192368 -14.485479
v -34.088009 73.525772 -3.299642
v 6.084926 65.606583 -12.477986
v 10.256982 55.323986 -1.850514
v 4.637053 61.313854 -17.020237
v 6.084926 65.606583 -12.477986
v 1.969564 72.727806 -19.838049
v 4.038417 71.720276 -5.345708
v -49.055454 31.589146 -34.850163
v -58.899502 19.164797 -43.221588
v -46.847874 34.247345 -5.306658
v 10.024844 34.462067 28.960264
v 13.905801 22.937248 38.637390
v 26.020237 32.801685 7.092954
v -11.864511 35.449177 33.395184
v -12.357293 21.728966 42.540390
v 10.024844 34.462067 28.960264
v -36.998768 32.119537 19.355238
v -41.115677 18.068439 23.150694
v -11.864511 35.449177 33.395184
v -46.847874 34.247345 -5.306658
v -50.662647 19.372992 -5.591127
v -36.998768 32.119537 19.355238
v 26.020237 32.801685 7.092954
v 46.922436 17.774891 14.670959
v 25.509285 28.470078 -38.560963
v 46.551537 14.408917 -28.931322
v 55.407963 -0.000019 -33.948517
v -58.899502 19.164797 -43.221588
v -58.899502 19.164797 -43.221588
v -63.347557 -0.000020 -48.551788
v -50.662647 19.372992 -5.591127
v 13.905801 22.937248 38.637390
v 13.709809 12.864504 38.829391
v 46.922436 17.774891 14.670959
vn 0.9722 -0.0838 0.2188
vn 0.5242 0.8501 -0.0510
vn 0.1939 0.4376 -0.8780
vn 0.0522 0.8723 -0.4861
vn -0.1896 0.7023 -0.6862
vn 0.0559 0.8337 -0.5494
vn 0.1700 0.7126 0.6807
vn -0.7718 0.6220 0.1319
vn 0.1278 0.2884 0.9489
vn 0.8177 0.4561 0.3512
vn 0.4820 0.6359 -0.6027
vn -0.0124 0.7375 -0.6753
vn -0.1726 0.6510 -0.7392
vn 0.0012 0.8998 -0.4362
vn 0.3893 -0.0136 0.9210
vn -0.5654 0.1877 0.8032
vn 0.9101 0.1144 -0.3982
vn 0.9387 0.2298 -0.2570
vn -0.2199 0.1776 -0.9592
vn -0.2112 0.2547 -0.9437
vn -0.0893 0.3864 -0.9180
vn -0.2036 0.1790 -0.9626
vn -0.6734 0.6964 0.2481
vn -0.9247 0.2112 0.3167
vn 0.1270 0.7800 0.6128
vn -0.8787 0.4586 0.1328
vn -0.5887 0.2558 0.7668
vn -0.9908 0.1054 0.0849
vn -0.9821 0.1699 0.0814
vn 0.8275 0.5249 0.1993
vn -0.7079 0.7062 -0.0106
vn -0.7065 0.7077 -0.0105
vn -0.1969 0.1861 -0.9626
vn 0.0450 0.1793 -0.9828
vn 0.1217 -0.2077 -0.9706
vn -0.0153 -0.2003 -0.9796
vn 0.1435 0.6192 -0.7720
vn -0.2732 0.7706 -0.5757
vn -0.1891 0.7436 -0.6413
vn -0.2193 0.6120 -0.7599
vn -0.2248 0.1711 0.9593
vn 0.5668 0.8006 0.1944
vn 0.4167 0.9090 -0.0071
vn 0.7733 0.6303 -0.0685
vn 0.7709 0.3677 -0.5201
vn 0.6118 0.7903 -0.0324
vn 0.7569 0.1483 0.6365
vn 0.9367 0.3488 -0.0302
vn 0.3308 0.4731 -0.8166
vn 0.1498 -0.2038 -0.9675
vn -0.0089 0.7416 -0.6708
vn -0.3222 0.6257 -0.7104
vn -0.6796 0.6731 -0.2916
vn -0.4465 0.8156 -0.3681
vn -0.6676 0.0649 0.7417
vn -0.6916 0.6650 0.2819
vn 0.1458 0.7405 0.6561
vn 0.9234 0.3711 0.0982
vn -0.9834 0.1637 0.0784
vn -0.4306 0.6614 0.6141
vn -0.9040 0.1993 0.3782
vn -0.8780 0.4655 -0.1116
vn 0.8768 0.4788 -0.0444
vn 0.7936 0.6072 0.0386
vn 0.8842 0.4669 0.0159
vn 0.3793 0.9014 0.2090
vn 0.9706 0.0835 -0.2259
vn 0.7019 0.6089 0.3696
vn 0.0818 0.8582 -0.5067
vn 0.1171 0.3260 -0.9381
vn -0.0949 0.3952 -0.9137
vn 0.1740 0.4030 -0.8985
vn -0.8391 0.5128 -0.1813
vn -0.9694 0.2239 0.1002
vn 0.6518 0.7293 0.2079
vn -0.2645 0.3070 0.9142
vn -0.7883 0.6074 0.0982
vn -0.2551 0.9365 -0.2407
vn 0.1269 0.5377 -0.8336
vn -0.0133 0.6538 -0.7565
vn 0.0533 0.9612 -0.2707
vn 0.9564 0.0466 0.2883
vn -0.0691 0.1042 0.9922
vn -0.2183 0.1863 0.9580
vn -0.2215 0.1949 0.9555
vn -0.4906 0.7690 -0.4098
vn 0.1327 -0.4171 -0.8991
vn -0.2025 0.6525 -0.7303
vn 0.0927 -0.5117 -0.8541
vn -0.9487 0.2394 0.2063
vn 0.4270 0.8033 0.4152
vn 0.0812 0.6568 0.7497
vn -0.5309 0.4831 0.6962
vn -0.8865 0.3435 0.3101
vn 0.5756 0.8149 -0.0678
vn 0.1185 0.2405 -0.9634
vn -0.9562 0.2332 0.1772
vn 0.4618 0.4957 0.7356
vn 0.3785 0.0103 0.9255
vn -0.5658 0.1886 0.8027
vn -0.9244 0.1643 0.3442
vn 0.8480 0.5294 -0.0236
vn -0.1195 0.6476 -0.7525
vn 0.0657 0.6377 -0.7674
vn -0.2234 0.4758 0.8507
vn -0.2670 0.7190 -0.6417
vn 0.2857 0.0461 -0.9572
vn -0.7659 0.6255 -0.1488
vn -0.4707 0.7985 -0.3752
vn 0.9417 0.0363 -0.3345
vn 0.9027 0.4186 -0.0998
vn -0.7847 0.6198 0.0029
vn 0.6682 0.5974 0.4434
vn 0.1905 0.5397 0.8200
vn -0.4910 0.3583 0.7940
vn -0.8985 0.2232 0.3781
vn 0.6012 0.7949 -0.0821
vn 0.1407 0.4016 -0.9049
vn -0.9636 0.1652 0.2100
vn 0.5878 0.0040 0.8090
vt 0.165844 0.019833
vt 0.165863 0.019791
vt 0.165806 0.019823
vt 0.165676 0.020784
vt 0.165681 0.020723
vt 0.165649 0.020701
vt 0.165971 0.020026
vt 0.166041 0.020035
vt 0.166052 0.020020
vt 0.165744 0.020801
vt 0.165661 0.020795
vt 0.165731 0.020815
vt 0.165812 0.020792
vt 0.165684 0.020653
vt 0.165699 0.020663
vt 0.165731 0.020644
vt 0.166714 0.019315
vt 0.166732 0.019291
vt 0.166704 0.019288
vt 0.165690 0.019987
vt 0.165686 0.019940
vt 0.165633 0.019990
vt 0.164961 0.019342
vt 0.164976 0.019362
vt 0.164996 0.019331
vt 0.166389 0.019641
vt 0.166380 0.019626
vt 0.166341 0.019629
vt 0.166429 0.019624
vt 0.166417 0.019610
vt 0.165238 0.019729
vt 0.165190 0.019727
vt 0.165197 0.019737
vt 0.165633 0.019968
vt 0.165539 0.019940
vt 0.165753 0.019980
vt 0.165758 0.019940
vt 0.165783 0.019846
vt 0.165773 0.019836
vt 0.165767 0.019861
vt 0.165759 0.019811
vt 0.166353 0.019481
vt 0.166352 0.019498
vt 0.166389 0.019488
vt 0.166326 0.019494
vt 0.166331 0.019513
vt 0.166321 0.019485
vt 0.166656 0.019480
vt 0.166647 0.019503
vt 0.166677 0.019502
vt 0.165700 0.020904
vt 0.165704 0.020862
vt 0.165637 0.020901
vt 0.166625 0.019470
vt 0.165698 0.020973
vt 0.165699 0.020936
vt 0.165652 0.020978
vt 0.165196 0.019890
vt 0.165196 0.019922
vt 0.165219 0.019902
vt 0.165744 0.020971
vt 0.165748 0.020948
vt 0.165740 0.020994
vt 0.165798 0.019859
vt 0.165857 0.019850
vt 0.165756 0.020939
vt 0.165763 0.020931
vt 0.165379 0.021131
vt 0.165367 0.021180
vt 0.165376 0.021188
vt 0.165186 0.019705
vt 0.165235 0.019697
vt 0.165183 0.019682
vt 0.165286 0.019704
vt 0.165227 0.019983
vt 0.165227 0.020003
vt 0.165295 0.019989
vt 0.165316 0.021189
vt 0.165804 0.020785
vt 0.165167 0.019982
vt 0.166913 0.019769
vt 0.166921 0.019723
vt 0.166867 0.019751
vt 0.165538 0.020512
vt 0.165539 0.020611
vt 0.165551 0.020606
vt 0.164971 0.019311
vt 0.164955 0.019323
vt 0.165782 0.019871
vt 0.165631 0.019355
vt 0.165668 0.019348
vt 0.165671 0.019323
vt 0.165640 0.019363
vt 0.165662 0.019373
vt 0.166385 0.019615
vt 0.165626 0.019365
vt 0.165695 0.021022
vt 0.165733 0.021004
vt 0.166428 0.019586
vt 0.165227 0.019853
vt 0.165651 0.021021
vt 0.165673 0.021010
vt 0.165733 0.020667
vt 0.165786 0.020674
vt 0.165645 0.020932
vt 0.165493 0.020495
vt 0.165471 0.020483
vt 0.165494 0.020590
vt 0.165804 0.019793
vt 0.165749 0.019800
vt 0.165742 0.019786
vt 0.166376 0.019498
vt 0.166351 0.019516
vt 0.166371 0.019517
vt 0.166724 0.019270
vt 0.166736 0.019271
vt 0.166739 0.019262
vt 0.166617 0.019528
vt 0.165166 0.019918
vt 0.165315 0.021175
vt 0.165287 0.020002
vt 0.165295 0.019692
vt 0.165255 0.021180
vt 0.166833 0.019741
vt 0.166839 0.019799
vt 0.166871 0.019812
vt 0.166405 0.019575
vt 0.166415 0.019595
vt 0.166098 0.019990
vt 0.165868 0.020000
vt 0.165890 0.020027
vt 0.165782 0.020904
vt 0.165565 0.020443
vt 0.165642 0.020015
vt 0.165689 0.020017
vt 0.166117 0.019958
vt 0.165858 0.019958
vt 0.165793 0.020862
vt 0.165561 0.019979
vt 0.165631 0.020862
vt 0.165474 0.020601
vt 0.166353 0.019537
vt 0.165175 0.019949
vt 0.165573 0.020464
vt 0.165744 0.020010
s 0
usemtl rock
f 1/1/1 2/2/1 3/3/1
f 4/4/2 5/5/2 6/6/2
f 7/7/3 8/8/3 9/9/3
f 10/10/4 11/4/4 12/11/4
f 13/12/5 14/13/5 15/10/5
f 16/12/6 17/10/6 18/11/6
f 19/14/7 20/15/7 21/16/7
f 22/17/8 23/18/8 24/19/8
f 25/20/9 26/21/9 27/22/9
f 28/23/10 29/24/10 30/25/10
f 31/26/11 32/27/11 33/28/11
f 34/29/12 35/30/12 36/27/12
f 37/31/13 38/32/13 39/33/13
f 40/26/14 41/29/14 42/27/14
f 43/34/15 44/21/15 45/35/15
f 46/36/16 47/37/16 48/20/16
f 49/38/17 50/39/17 51/40/17
f 52/3/18 53/41/18 54/39/18
f 55/42/19 56/43/19 57/44/19
f 58/45/20 59/46/20 60/43/20
f 61/42/21 62/47/21 63/45/21
f 64/42/22 65/45/22 66/43/22
f 67/48/23 68/49/23 69/50/23
f 70/51/24 71/52/24 72/53/24
f 73/54/25 74/49/25 75/48/25
f 76/55/26 77/56/26 78/57/26
f 79/58/27 80/59/27 81/60/27
f 82/55/28 83/61/28 84/62/28
f 85/55/29 86/63/29 87/61/29
f 88/1/30 89/64/30 90/65/30
f 91/56/31 92/66/31 93/67/31
f 94/68/32 95/69/32 96/70/32
f 97/31/33 98/71/33 99/32/33
f 100/72/34 101/73/34 102/71/34
f 103/31/35 104/74/35 105/72/35
f 106/31/36 107/72/36 108/71/36
f 109/75/37 110/76/37 111/77/37
f 112/70/38 113/69/38 114/78/38
f 115/10/39 116/13/39 117/79/39
f 118/75/40 119/80/40 120/76/40
f 121/81/41 122/82/41 123/83/41
f 124/5/42 125/15/42 126/14/42
f 127/6/43 128/11/43 129/4/43
f 130/84/44 131/85/44 132/86/44
f 133/87/45 134/88/45 135/23/45
f 136/64/46 137/40/46 138/89/46
f 139/1/47 140/65/47 141/2/47
f 142/38/48 143/64/48 144/3/48
f 145/90/49 146/91/49 147/92/49
f 148/93/50 149/94/50 150/91/50
f 151/27/51 152/30/51 153/95/51
f 154/90/52 155/96/52 156/93/52
f 157/97/53 158/98/53 159/63/53
f 160/99/54 161/30/54 162/29/54
f 163/58/55 164/60/55 165/100/55
f 166/101/56 167/102/56 168/57/56
f 169/103/57 170/16/57 171/15/57
f 172/1/58 173/3/58 174/64/58
f 175/55/59 176/97/59 177/63/59
f 178/104/60 179/16/60 180/103/60
f 181/56/61 182/105/61 183/57/61
f 184/62/62 185/56/62 186/55/62
f 187/106/63 188/107/63 189/108/63
f 190/109/64 191/110/64 192/41/64
f 193/109/65 194/111/65 195/110/65
f 196/5/66 197/14/66 198/6/66
f 199/3/67 200/109/67 201/41/67
f 202/23/68 203/25/68 204/87/68
f 205/43/69 206/112/69 207/44/69
f 208/113/70 209/114/70 210/112/70
f 211/43/71 212/46/71 213/113/71
f 214/43/72 215/113/72 216/112/72
f 217/115/73 218/116/73 219/117/73
f 220/19/74 221/18/74 222/116/74
f 223/118/75 224/49/75 225/54/75
f 226/119/76 227/59/76 228/58/76
f 229/57/77 230/102/77 231/55/77
f 232/120/78 233/78/78 234/69/78
f 235/121/79 236/77/79 237/76/79
f 238/72/80 239/74/80 240/122/80
f 241/120/81 242/123/81 243/78/81
f 244/2/82 245/109/82 246/3/82
f 247/83/83 248/124/83 249/125/83
f 250/81/84 251/83/84 252/125/84
f 253/125/85 254/126/85 255/81/85
f 256/99/86 257/127/86 258/128/86
f 259/129/87 260/7/87 261/9/87
f 262/130/88 263/131/88 264/7/88
f 265/129/89 266/130/89 267/7/89
f 268/132/90 269/51/90 270/56/90
f 271/133/91 272/106/91 273/84/91
f 274/20/92 275/22/92 276/134/92
f 277/36/93 278/20/93 279/135/93
f 280/51/94 281/53/94 282/105/94
f 283/106/95 284/108/95 285/85/95
f 286/136/96 287/137/96 288/130/96
f 289/138/97 290/52/97 291/51/97
f 292/34/98 293/35/98 294/139/98
f 295/21/99 296/34/99 297/22/99
f 298/37/100 299/21/100 300/20/100
f 301/52/101 302/140/101 303/53/101
f 304/107/102 305/141/102 306/108/102
f 307/142/103 308/113/103 309/46/103
f 310/142/104 311/114/104 312/113/104
f 313/143/105 314/59/105 315/119/105
f 316/93/106 317/96/106 318/94/106
f 319/93/107 320/91/107 321/90/107
f 322/115/108 323/19/108 324/116/108
f 325/128/109 326/30/109 327/99/109
f 328/38/110 329/3/110 330/39/110
f 331/38/111 332/40/111 333/64/111
f 334/67/112 335/132/112 336/56/112
f 337/144/113 338/133/113 339/84/113
f 340/135/114 341/20/114 342/134/114
f 343/145/115 344/36/115 345/135/115
f 346/56/116 347/51/116 348/105/116
f 349/84/117 350/106/117 351/85/117
f 352/129/118 353/136/118 354/130/118
f 355/132/119 356/138/119 357/51/119
f 358/22/120 359/34/120 360/139/120
