# Blender 3.6.0
# www.blender.org
mtllib rock3.mtl
o SP_Mountain03_Mat
v -17.336288 -0.000021 13.584122
v -41.009026 -0.000021 10.894348
v -45.028709 -0.000022 -0.119431
v -41.795059 -0.000023 -12.402496
v -45.028709 -0.000022 -0.119431
v -45.146301 10.055143 11.088805
v 27.751114 10.727679 -2.889558
v 26.056503 9.060191 12.408263
v 26.360443 -0.000022 8.703659
v 10.632019 4.366862 10.305099
v -8.857803 8.414813 8.751540
v -13.549805 3.758035 13.005951
v 24.172623 -0.000022 -1.985565
v 27.751114 10.727679 -2.889558
v 26.360443 -0.000022 8.703659
v 8.163300 25.730341 -18.780046
v -30.644623 17.526007 -17.757006
v -10.140152 37.074505 -2.225589
v 12.235489 11.934268 -23.887314
v -5.856400 10.641991 -22.896851
v 16.335617 23.125498 -22.814486
v 27.219055 26.665836 -18.375597
v 26.179428 28.600538 8.307692
v 27.751114 10.727679 -2.889558
v -39.662018 10.659421 -12.800157
v -43.863228 10.737063 -0.164140
v -30.644623 17.526007 -17.757006
v -10.140152 37.074505 -2.225589
v -30.644623 17.526007 -17.757006
v -32.279419 19.187321 11.073759
v -31.677193 7.042385 -22.879440
v -5.856400 10.641991 -22.896851
v 0.722534 5.462154 -23.202942
v 7.273361 24.945189 12.208662
v 6.368774 36.613556 -3.275287
v -10.140152 37.074505 -2.225589
v -30.308365 9.892916 -23.659805
v -5.856400 10.641991 -22.896851
v -31.677193 7.042385 -22.879440
v 0.722534 5.462154 -23.202942
v -5.856400 10.641991 -22.896851
v 18.790100 7.644513 -22.405319
v 25.643387 10.502374 -11.675096
v 27.751114 10.727679 -2.889558
v 24.172623 -0.000022 -1.985565
v 21.048248 9.822662 -19.990250
v 25.643387 10.502374 -11.675096
v 30.913147 -0.000024 -17.759781
v 3.674271 22.503922 -23.083223
v -5.856400 10.641991 -22.896851
v -22.111168 17.052656 -22.403475
v -35.171295 7.308777 12.965606
v -45.146301 10.055143 11.088805
v -41.009026 -0.000021 10.894348
v -22.111168 17.052656 -22.403475
v -5.856400 10.641991 -22.896851
v -22.928146 13.614745 -24.621569
v -43.863228 10.737063 -0.164140
v -32.279419 19.187321 11.073759
v -30.644623 17.526007 -17.757006
v -13.549805 3.758035 13.005951
v -8.857803 8.414813 8.751540
v -26.650322 4.974991 11.517426
v -45.028709 -0.000022 -0.119431
v -41.009026 -0.000021 10.894348
v -45.146301 10.055143 11.088805
v -21.819351 14.376331 8.078734
v -8.857803 8.414813 8.751540
v 0.069199 17.562738 8.706801
v 10.531830 19.585611 10.085966
v -8.857803 8.414813 8.751540
v 10.463806 8.771966 12.355224
v 21.048248 9.822662 -19.990250
v 27.219055 26.665836 -18.375597
v 25.643387 10.502374 -11.675096
v -43.863228 10.737063 -0.164140
v -41.795059 -0.000023 -12.402496
v -45.146301 10.055143 11.088805
v 16.335617 23.125498 -22.814486
v -5.856400 10.641991 -22.896851
v 3.674271 22.503922 -23.083223
v -28.939896 9.322574 11.625030
v -8.857803 8.414813 8.751540
v -21.819351 14.376331 8.078734
v -39.662018 10.659421 -12.800157
v -39.734924 6.750360 -13.576966
v -43.863228 10.737063 -0.164140
v -39.734924 6.750360 -13.576966
v -41.795059 -0.000023 -12.402496
v -43.863228 10.737063 -0.164140
v 18.790100 7.644513 -22.405319
v -5.856400 10.641991 -22.896851
v 12.235489 11.934268 -23.887314
v 0.069199 17.562738 8.706801
v -8.857803 8.414813 8.751540
v 10.531830 19.585611 10.085966
v 30.913147 -0.000024 -17.759781
v 25.643387 10.502374 -11.675096
v 24.172623 -0.000022 -1.985565
v -45.146301 10.055143 11.088805
v -32.279419 19.187321 11.073759
v -43.863228 10.737063 -0.164140
v 17.415237 31.187145 -8.102465
v 27.219055 26.665836 -18.375597
v 8.163300 25.730341 -18.780046
v -26.650322 4.974991 11.517426
v -8.857803 8.414813 8.751540
v -28.822678 7.802731 12.663665
v -28.822678 7.802731 12.663665
v -8.857803 8.414813 8.751540
v -28.939896 9.322574 11.625030
v 10.463806 8.771966 12.355224
v -8.857803 8.414813 8.751540
v 10.632019 4.366862 10.305099
v 7.273361 24.945189 12.208662
v -10.140152 37.074505 -2.225589
v -32.279419 19.187321 11.073759
v -33.236664 12.490240 -19.687363
v -22.928146 13.614745 -24.621569
v -30.308365 9.892916 -23.659805
v 25.643387 10.502374 -11.675096
v 27.219055 26.665836 -18.375597
v 27.751114 10.727679 -2.889558
v 27.751114 10.727679 -2.889558
v 26.179428 28.600538 8.307692
v 26.056503 9.060191 12.408263
v 6.368774 36.613556 -3.275287
v 8.163300 25.730341 -18.780046
v -10.140152 37.074505 -2.225589
v 6.368774 36.613556 -3.275287
v 7.273361 24.945189 12.208662
v 26.179428 28.600538 8.307692
v 26.179428 28.600538 8.307692
v 17.415237 31.187145 -8.102465
v 6.368774 36.613556 -3.275287
v 9.646133 21.611277 11.072111
v 7.273361 24.945189 12.208662
v 0.069199 17.562738 8.706801
v 26.056503 9.060191 12.408263
v 26.179428 28.600538 8.307692
v 10.531830 19.585611 10.085966
v 26.360443 -0.000022 8.703659
v 26.056503 9.060191 12.408263
v 10.463806 8.771966 12.355224
v -17.336288 -0.000021 13.584122
v 26.360443 -0.000022 8.703659
v 10.632019 4.366862 10.305099
v -41.009026 -0.000021 10.894348
v -17.336288 -0.000021 13.584122
v -13.549805 3.758035 13.005951
v -35.171295 7.308777 12.965606
v -41.009026 -0.000021 10.894348
v -26.650322 4.974991 11.517426
v -45.146301 10.055143 11.088805
v -35.171295 7.308777 12.965606
v -28.822678 7.802731 12.663665
v -32.279419 19.187321 11.073759
v -45.146301 10.055143 11.088805
v -28.939896 9.322574 11.625030
v 7.273361 24.945189 12.208662
v -32.279419 19.187321 11.073759
v -21.819351 14.376331 8.078734
v -30.644623 17.526007 -17.757006
v 8.163300 25.730341 -18.780046
v 3.674271 22.503922 -23.083223
v -32.685684 15.291431 -18.904467
v -30.644623 17.526007 -17.757006
v -22.111168 17.052656 -22.403475
v -39.734924 6.750360 -13.576966
v -39.662018 10.659421 -12.800157
v -33.236664 12.490240 -19.687363
v -41.795059 -0.000023 -12.402496
v -39.734924 6.750360 -13.576966
v -30.308365 9.892916 -23.659805
v 3.720871 -0.000024 -18.960251
v -41.795059 -0.000023 -12.402496
v -31.677193 7.042385 -22.879440
v 30.913147 -0.000024 -17.759781
v 3.720871 -0.000024 -18.960251
v 0.722534 5.462154 -23.202942
v 21.048248 9.822662 -19.990250
v 30.913147 -0.000024 -17.759781
v 18.790100 7.644513 -22.405319
v 27.219055 26.665836 -18.375597
v 21.048248 9.822662 -19.990250
v 12.235489 11.934268 -23.887314
v 8.163300 25.730341 -18.780046
v 27.219055 26.665836 -18.375597
v 16.335617 23.125498 -22.814486
v 10.531830 19.585611 10.085966
v 26.179428 28.600538 8.307692
v 9.646133 21.611277 11.072111
v 10.463806 8.771966 12.355224
v 26.056503 9.060191 12.408263
v 10.531830 19.585611 10.085966
v 10.632019 4.366862 10.305099
v 26.360443 -0.000022 8.703659
v 10.463806 8.771966 12.355224
v -13.549805 3.758035 13.005951
v -17.336288 -0.000021 13.584122
v 10.632019 4.366862 10.305099
v -26.650322 4.974991 11.517426
v -41.009026 -0.000021 10.894348
v -13.549805 3.758035 13.005951
v -28.822678 7.802731 12.663665
v -35.171295 7.308777 12.965606
v -26.650322 4.974991 11.517426
v -28.939896 9.322574 11.625030
v -45.146301 10.055143 11.088805
v -28.822678 7.802731 12.663665
v -21.819351 14.376331 8.078734
v -32.279419 19.187321 11.073759
v -28.939896 9.322574 11.625030
v 0.069199 17.562738 8.706801
v 7.273361 24.945189 12.208662
v -21.819351 14.376331 8.078734
v -22.111168 17.052656 -22.403475
v -30.644623 17.526007 -17.757006
v 3.674271 22.503922 -23.083223
v -33.236664 12.490240 -19.687363
v -39.662018 10.659421 -12.800157
v -32.685684 15.291431 -18.904467
v -30.308365 9.892916 -23.659805
v -39.734924 6.750360 -13.576966
v -33.236664 12.490240 -19.687363
v -31.677193 7.042385 -22.879440
v -41.795059 -0.000023 -12.402496
v -30.308365 9.892916 -23.659805
v 0.722534 5.462154 -23.202942
v 3.720871 -0.000024 -18.960251
v -31.677193 7.042385 -22.879440
v 18.790100 7.644513 -22.405319
v 30.913147 -0.000024 -17.759781
v 0.722534 5.462154 -23.202942
v 12.235489 11.934268 -23.887314
v 21.048248 9.822662 -19.990250
v 18.790100 7.644513 -22.405319
v 16.335617 23.125498 -22.814486
v 27.219055 26.665836 -18.375597
v 12.235489 11.934268 -23.887314
v 3.674271 22.503922 -23.083223
v 8.163300 25.730341 -18.780046
v 16.335617 23.125498 -22.814486
v 9.646133 21.611277 11.072111
v 26.179428 28.600538 8.307692
v 7.273361 24.945189 12.208662
v 9.646133 21.611277 11.072111
v 0.069199 17.562738 8.706801
v 10.531830 19.585611 10.085966
v -32.685684 15.291431 -18.904467
v -39.662018 10.659421 -12.800157
v -30.644623 17.526007 -17.757006
v -32.685684 15.291431 -18.904467
v -22.111168 17.052656 -22.403475
v -33.236664 12.490240 -19.687363
v -22.928146 13.614745 -24.621569
v -33.236664 12.490240 -19.687363
v -22.111168 17.052656 -22.403475
v -22.928146 13.614745 -24.621569
v -5.856400 10.641991 -22.896851
v -30.308365 9.892916 -23.659805
v 17.415237 31.187145 -8.102465
v 26.179428 28.600538 8.307692
v 27.219055 26.665836 -18.375597
v 17.415237 31.187145 -8.102465
v 8.163300 25.730341 -18.780046
v 6.368774 36.613556 -3.275287
v 3.720871 -0.000024 -18.960251
v 30.913147 -0.000024 -17.759781
v 24.172623 -0.000022 -1.985565
v 3.720871 -0.000024 -18.960251
v 24.172623 -0.000022 -1.985565
v 26.360443 -0.000022 8.703659
v -17.336288 -0.000021 13.584122
v 3.720871 -0.000024 -18.960251
v -17.336288 -0.000021 13.584122
v -45.028709 -0.000022 -0.119431
v -41.795059 -0.000023 -12.402496
vn -0.0000 -1.0000 -0.0000
vn -0.9330 0.2629 -0.2456
vn 0.9940 -0.0112 0.1089
vn 0.0701 0.6334 0.7706
vn 0.9265 -0.3250 -0.1896
vn -0.1692 0.7158 -0.6775
vn -0.0627 0.1180 -0.9910
vn 0.9972 0.0664 0.0340
vn -0.6657 0.7113 -0.2257
vn -0.6552 0.7512 -0.0804
vn -0.0076 0.0494 -0.9987
vn 0.0604 0.7989 0.5985
vn 0.0385 -0.2810 -0.9589
vn 0.0319 0.0993 -0.9945
vn 0.9214 -0.3253 -0.2127
vn 0.6847 0.5908 -0.4267
vn -0.0277 0.0066 -0.9996
vn -0.2120 -0.1060 0.9715
vn 0.1733 0.5045 -0.8458
vn -0.5365 0.8402 -0.0788
vn -0.0192 0.6848 0.7285
vn -0.8743 -0.3659 0.3191
vn -0.0342 0.0383 0.9987
vn -0.1832 0.2030 0.9619
vn 0.8521 -0.2691 -0.4489
vn -0.9915 -0.0581 -0.1166
vn 0.0229 -0.0341 -0.9992
vn 0.1471 0.4209 0.8951
vn -0.9457 0.0802 -0.3149
vn -0.9126 0.2183 -0.3458
vn -0.0253 -0.3607 -0.9323
vn -0.1594 0.1603 0.9741
vn 0.8954 0.2276 0.3826
vn -0.5787 0.8154 -0.0166
vn -0.0351 0.9019 -0.4305
vn 0.1938 -0.2370 0.9520
vn 0.1418 0.5659 0.8122
vn -0.1587 -0.4216 0.8928
vn -0.1202 0.6838 0.7197
vn -0.3960 0.6072 -0.6889
vn 0.9564 -0.1864 -0.2247
vn 0.9936 0.0172 0.1119
vn -0.0138 0.8177 -0.5755
vn -0.0298 0.7974 0.6027
vn 0.4123 0.9078 -0.0771
vn -0.0733 -0.3681 0.9269
vn -0.0071 0.2054 0.9786
vn 0.0038 -0.3784 0.9257
vn 0.1109 0.0353 0.9932
vn -0.1091 0.2576 0.9601
vn 0.0715 -0.3244 0.9432
vn -0.0036 0.5552 0.8317
vn -0.0310 0.0453 0.9985
vn 0.0417 -0.4611 0.8864
vn -0.1961 0.8717 -0.4490
vn -0.3336 0.6536 -0.6793
vn -0.7424 0.1439 -0.6543
vn -0.7431 0.1120 -0.6598
vn -0.0883 -0.7851 -0.6130
vn 0.0353 -0.6009 -0.7985
vn 0.5153 0.3387 -0.7873
vn 0.3926 -0.0558 -0.9180
vn -0.0276 0.8134 -0.5811
vn 0.2849 -0.3160 0.9050
vn -0.0251 -0.4226 0.9060
vn 0.1099 0.0421 0.9931
vn -0.0971 0.1571 0.9828
vn 0.0703 -0.3279 0.9421
vn -0.0018 0.5641 0.8257
vn 0.3418 0.1674 0.9248
vn -0.7346 0.3128 -0.6022
vn -0.7452 0.1526 -0.6491
vn -0.7690 0.2034 -0.6060
vn -0.0383 -0.6260 -0.7789
vn 0.0896 -0.4097 -0.9078
vn 0.4493 0.4127 -0.7923
vn 0.2296 -0.1637 0.9594
vn -0.0310 -0.4484 0.8933
vn -0.6637 0.7165 -0.2148
vn -0.3450 0.3150 -0.8842
vn -0.4063 0.5616 -0.7208
vn 0.0394 -0.3225 -0.9458
vn 0.3722 0.9267 -0.0527
vn 0.1587 0.8167 -0.5549
vt 0.538203 0.014982
vt 0.535559 0.015283
vt 0.535110 0.016513
vt 0.544686 0.027611
vt 0.546058 0.027611
vt 0.547310 0.026487
vt 0.545537 0.016979
vt 0.543828 0.017165
vt 0.544242 0.018177
vt 0.541340 0.022945
vt 0.539163 0.022492
vt 0.538639 0.023013
vt 0.545436 0.018177
vt 0.541065 0.024149
vt 0.536729 0.024263
vt 0.539020 0.025998
vt 0.545419 0.020937
vt 0.547440 0.021081
vt 0.544961 0.019687
vt 0.547267 0.015198
vt 0.544286 0.014982
vt 0.535722 0.024817
vt 0.535253 0.026228
vt 0.536547 0.027484
vt 0.550325 0.021483
vt 0.546705 0.021660
vt 0.540965 0.027611
vt 0.540864 0.025881
vt 0.550172 0.021165
vt 0.544687 0.021416
vt 0.546519 0.017004
vt 0.547447 0.017080
vt 0.547198 0.018177
vt 0.546376 0.019756
vt 0.549256 0.020365
vt 0.536224 0.022616
vt 0.535110 0.022309
vt 0.535572 0.023432
vt 0.549347 0.020749
vt 0.537176 0.022877
vt 0.547289 0.027611
vt 0.537715 0.021827
vt 0.540160 0.021471
vt 0.541329 0.021245
vt 0.541321 0.022453
vt 0.546053 0.026411
vt 0.536920 0.022391
vt 0.544642 0.026420
vt 0.544555 0.026856
vt 0.535110 0.027485
vt 0.542098 0.025342
vt 0.543193 0.024194
vt 0.536933 0.022561
vt 0.540965 0.020646
vt 0.539020 0.019291
vt 0.536547 0.021289
vt 0.550499 0.020875
vt 0.543077 0.027175
vt 0.541230 0.021018
vt 0.543063 0.022420
vt 0.543077 0.020238
vt 0.543097 0.023432
vt 0.538216 0.023432
vt 0.540563 0.023668
vt 0.550437 0.020562
vt 0.550209 0.020312
vt 0.543873 0.026215
vt 0.543429 0.026505
vt 0.540555 0.018617
vt 0.535471 0.017885
vt 0.536601 0.019055
vt 0.543333 0.022270
vt 0.546370 0.022270
vt 0.544435 0.021173
vt 0.543746 0.019291
vt 0.541977 0.023698
vt 0.537683 0.023744
vt 0.543960 0.025902
vt 0.543516 0.026824
vt 0.536501 0.024135
vt 0.543593 0.018483
vt 0.542840 0.016721
vt 0.543084 0.015527
s 0
usemtl rock2
f 1/1/1 2/2/1 3/3/1
f 4/4/2 5/5/2 6/6/2
f 7/7/3 8/8/3 9/9/3
f 10/10/4 11/11/4 12/12/4
f 13/13/5 14/7/5 15/9/5
f 16/14/6 17/15/6 18/16/6
f 19/17/7 20/18/7 21/19/7
f 22/20/8 23/21/8 24/7/8
f 25/22/9 26/23/9 27/15/9
f 28/16/10 29/15/10 30/24/10
f 31/25/11 32/18/11 33/26/11
f 34/27/12 35/28/12 36/16/12
f 37/29/13 38/18/13 39/25/13
f 40/26/14 41/18/14 42/30/14
f 43/31/15 44/7/15 45/13/15
f 46/32/16 47/31/16 48/33/16
f 49/34/17 50/18/17 51/35/17
f 52/36/18 53/37/18 54/38/18
f 55/35/19 56/18/19 57/39/19
f 58/23/20 59/24/20 60/15/20
f 61/12/21 62/11/21 63/40/21
f 64/5/22 65/41/22 66/6/22
f 67/42/23 68/11/23 69/43/23
f 70/44/24 71/11/24 72/45/24
f 73/32/25 74/20/25 75/31/25
f 76/46/26 77/4/26 78/6/26
f 79/19/27 80/18/27 81/34/27
f 82/47/28 83/11/28 84/42/28
f 85/48/29 86/49/29 87/46/29
f 88/49/30 89/4/30 90/46/30
f 91/30/31 92/18/31 93/17/31
f 94/43/32 95/11/32 96/44/32
f 97/33/33 98/31/33 99/13/33
f 100/50/34 101/24/34 102/23/34
f 103/51/35 104/52/35 105/14/35
f 106/40/36 107/11/36 108/53/36
f 109/53/37 110/11/37 111/47/37
f 112/45/38 113/11/38 114/10/38
f 115/54/39 116/55/39 117/56/39
f 118/57/40 119/39/40 120/29/40
f 121/31/41 122/20/41 123/7/41
f 124/7/42 125/21/42 126/8/42
f 127/28/43 128/14/43 129/16/43
f 130/28/44 131/27/44 132/58/44
f 133/58/45 134/51/45 135/28/45
f 136/59/46 137/54/46 138/43/46
f 139/60/47 140/61/47 141/44/47
f 142/62/48 143/60/48 144/45/48
f 145/63/49 146/62/49 147/10/49
f 148/38/50 149/63/50 150/12/50
f 151/36/51 152/38/51 153/40/51
f 154/37/52 155/36/52 156/53/52
f 157/56/53 158/37/53 159/47/53
f 160/54/54 161/56/54 162/42/54
f 163/15/55 164/14/55 165/64/55
f 166/65/56 167/66/56 168/35/56
f 169/49/57 170/48/57 171/67/57
f 172/4/58 173/49/58 174/68/58
f 175/69/59 176/70/59 177/71/59
f 178/72/60 179/73/60 180/26/60
f 181/74/61 182/72/61 183/30/61
f 184/75/62 185/74/62 186/17/62
f 187/14/63 188/52/63 189/76/63
f 190/44/64 191/61/64 192/59/64
f 193/45/47 194/60/47 195/44/47
f 196/10/65 197/62/65 198/45/65
f 199/12/66 200/63/66 201/10/66
f 202/40/67 203/38/67 204/12/67
f 205/53/68 206/36/68 207/40/68
f 208/47/69 209/37/69 210/53/69
f 211/42/70 212/56/70 213/47/70
f 214/43/54 215/54/54 216/42/54
f 217/77/55 218/15/55 219/64/55
f 220/67/71 221/48/71 222/78/71
f 223/68/72 224/49/72 225/67/72
f 226/79/73 227/4/73 228/68/73
f 229/26/74 230/73/74 231/25/74
f 232/30/75 233/72/75 234/26/75
f 235/17/76 236/74/76 237/30/76
f 238/19/62 239/75/62 240/17/62
f 241/64/63 242/14/63 243/76/63
f 244/59/77 245/61/77 246/54/77
f 247/59/78 248/43/78 249/44/78
f 250/80/79 251/22/79 252/15/79
f 253/65/80 254/35/80 255/57/80
f 256/39/81 257/57/81 258/35/81
f 259/39/82 260/18/82 261/29/82
f 262/51/83 263/58/83 264/52/83
f 265/51/84 266/14/84 267/28/84
f 268/69/1 269/81/1 270/82/1
f 271/69/1 272/82/1 273/83/1
f 271/69/1 273/83/1 274/1/1
f 275/69/1 276/1/1 277/3/1
f 275/69/1 277/3/1 278/70/1
