{
	"asset":{
		"generator":"Khronos glTF Blender I/O v3.6.27",
		"version":"2.0"
	},
	"scene":0,
	"scenes":[
		{
			"name":"Scene",
			"nodes":[
				6
			]
		}
	],
	"nodes":[
		{
			"mesh":0,
			"name":"body_down",
			"translation":[
				0.000701904296875,
				8.694622993469238,
				-0.11827048659324646
			]
		},
		{
			"mesh":1,
			"name":"cabin.001",
			"translation":[
				0.00018310546875,
				22.822490692138672,
				-3.958789110183716
			]
		},
		{
			"mesh":2,
			"name":"engine2",
			"translation":[
				0,
				-4.983551979064941,
				-0.00288490136153996
			]
		},
		{
			"mesh":3,
			"name":"engine3",
			"translation":[
				3.0517578125e-05,
				-12.334854125976562,
				-0.0017437889473512769
			]
		},
		{
			"children":[
				2,
				3
			],
			"mesh":4,
			"name":"engine1",
			"translation":[
				-0.00042724609375,
				-9.710702896118164,
				1.0488617420196533
			]
		},
		{
			"mesh":5,
			"name":"wings",
			"translation":[
				-0.000152587890625,
				-5.1431989669799805,
				1.2124727964401245
			]
		},
		{
			"children":[
				0,
				1,
				4,
				5
			],
			"mesh":6,
			"name":"body",
			"rotation":[
				0.7071068286895752,
				0,
				0,
				0.7071068286895752
			]
		}
	],
	"materials":[
		{
			"doubleSided":true,
			"name":"Material.016",
			"pbrMetallicRoughness":{
				"baseColorFactor":[
					0.11673399806022644,
					0.11673399806022644,
					0.11673399806022644,
					1
				],
				"metallicFactor":0,
				"roughnessFactor":0.6000000238418579
			}
		},
		{
			"doubleSided":true,
			"name":"Material.017",
			"pbrMetallicRoughness":{
				"baseColorFactor":[
					0.3107289969921112,
					0.40254101157188416,
					0.6994019746780396,
					1
				],
				"metallicFactor":0,
				"roughnessFactor":0.6000000238418579
			}
		},
		{
			"doubleSided":true,
			"name":"Material.019",
			"pbrMetallicRoughness":{
				"baseColorFactor":[
					0.7324789762496948,
					0.06883999705314636,
					0,
					1
				],
				"metallicFactor":0,
				"roughnessFactor":0.6000000238418579
			}
		},
		{
			"doubleSided":true,
			"name":"Material.020",
			"pbrMetallicRoughness":{
				"baseColorFactor":[
					1,
					0.12936100363731384,
					0,
					1
				],
				"metallicFactor":0,
				"roughnessFactor":0.6000000238418579
			}
		},
		{
			"doubleSided":true,
			"name":"Material.018",
			"pbrMetallicRoughness":{
				"baseColorFactor":[
					1,
					0,
					0,
					1
				],
				"metallicFactor":0,
				"roughnessFactor":0.6000000238418579
			}
		},
		{
			"doubleSided":true,
			"name":"Material.021",
			"pbrMetallicRoughness":{
				"baseColorFactor":[
					0.004220000002533197,
					0.004220000002533197,
					0.004220000002533197,
					1
				],
				"metallicFactor":0,
				"roughnessFactor":0.6000000238418579
			}
		},
		{
			"doubleSided":true,
			"name":"Material.015",
			"pbrMetallicRoughness":{
				"metallicFactor":0,
				"roughnessFactor":0.6000000238418579
			}
		}
	],
	"meshes":[
		{
			"name":"body_down",
			"primitives":[
				{
					"attributes":{
						"POSITION":0,
						"NORMAL":1
					},
					"indices":2,
					"material":0
				}
			]
		},
		{
			"name":"cabin",
			"primitives":[
				{
					"attributes":{
						"POSITION":3,
						"NORMAL":4
					},
					"indices":5,
					"material":1
				}
			]
		},
		{
			"name":"engine2",
			"primitives":[
				{
					"attributes":{
						"POSITION":6,
						"NORMAL":7
					},
					"indices":8,
					"material":2
				}
			]
		},
		{
			"name":"engine3",
			"primitives":[
				{
					"attributes":{
						"POSITION":9,
						"NORMAL":10
					},
					"indices":11,
					"material":3
				}
			]
		},
		{
			"name":"engine1",
			"primitives":[
				{
					"attributes":{
						"POSITION":12,
						"NORMAL":13
					},
					"indices":8,
					"material":4
				}
			]
		},
		{
			"name":"wings",
			"primitives":[
				{
					"attributes":{
						"POSITION":14,
						"NORMAL":15
					},
					"indices":16,
					"material":5
				}
			]
		},
		{
			"name":"body",
			"primitives":[
				{
					"attributes":{
						"POSITION":17,
						"NORMAL":18
					},
					"indices":19,
					"material":6
				}
			]
		}
	],
	"accessors":[
		{
			"bufferView":0,
			"componentType":5126,
			"count":101,
			"max":[
				16.618423461914062,
				49.886741638183594,
				15.197500228881836
			],
			"min":[
				-16.6195068359375,
				-23.436140060424805,
				-12.158782005310059
			],
			"type":"VEC3"
		},
		{
			"bufferView":1,
			"componentType":5126,
			"count":101,
			"type":"VEC3"
		},
		{
			"bufferView":2,
			"componentType":5123,
			"count":201,
			"type":"SCALAR"
		},
		{
			"bufferView":3,
			"componentType":5126,
			"count":20,
			"max":[
				11.708038330078125,
				18.543542861938477,
				3.866896152496338
			],
			"min":[
				-11.708084106445312,
				-16.822105407714844,
				-3.945528507232666
			],
			"type":"VEC3"
		},
		{
			"bufferView":4,
			"componentType":5126,
			"count":20,
			"type":"VEC3"
		},
		{
			"bufferView":5,
			"componentType":5123,
			"count":42,
			"type":"SCALAR"
		},
		{
			"bufferView":6,
			"componentType":5126,
			"count":64,
			"max":[
				15.625946044921875,
				8.07808780670166,
				9.502119064331055
			],
			"min":[
				-15.624755859375,
				-7.054020881652832,
				-7.021760940551758
			],
			"type":"VEC3"
		},
		{
			"bufferView":7,
			"componentType":5126,
			"count":64,
			"type":"VEC3"
		},
		{
			"bufferView":8,
			"componentType":5123,
			"count":96,
			"type":"SCALAR"
		},
		{
			"bufferView":9,
			"componentType":5126,
			"count":48,
			"max":[
				15.537078857421875,
				12.68309497833252,
				9.39260196685791
			],
			"min":[
				-15.535964965820312,
				-24.619762420654297,
				-6.462433815002441
			],
			"type":"VEC3"
		},
		{
			"bufferView":10,
			"componentType":5126,
			"count":48,
			"type":"VEC3"
		},
		{
			"bufferView":11,
			"componentType":5123,
			"count":48,
			"type":"SCALAR"
		},
		{
			"bufferView":12,
			"componentType":5126,
			"count":64,
			"max":[
				15.788986206054688,
				12.634504318237305,
				9.875709533691406
			],
			"min":[
				-15.787811279296875,
				-5.213937759399414,
				-7.334585666656494
			],
			"type":"VEC3"
		},
		{
			"bufferView":13,
			"componentType":5126,
			"count":64,
			"type":"VEC3"
		},
		{
			"bufferView":14,
			"componentType":5126,
			"count":92,
			"max":[
				25.772354125976562,
				30.509899139404297,
				11.022964477539062
			],
			"min":[
				-25.771713256835938,
				-11.663246154785156,
				-11.207086563110352
			],
			"type":"VEC3"
		},
		{
			"bufferView":15,
			"componentType":5126,
			"count":92,
			"type":"VEC3"
		},
		{
			"bufferView":16,
			"componentType":5123,
			"count":150,
			"type":"SCALAR"
		},
		{
			"bufferView":17,
			"componentType":5126,
			"count":271,
			"max":[
				27.25372314453125,
				58.58136749267578,
				15.52565860748291
			],
			"min":[
				-27.253402709960938,
				-21.58626937866211,
				-16.202590942382812
			],
			"type":"VEC3"
		},
		{
			"bufferView":18,
			"componentType":5126,
			"count":271,
			"type":"VEC3"
		},
		{
			"bufferView":19,
			"componentType":5123,
			"count":579,
			"type":"SCALAR"
		}
	],
	"bufferViews":[
		{
			"buffer":0,
			"byteLength":1212,
			"byteOffset":0,
			"target":34962
		},
		{
			"buffer":0,
			"byteLength":1212,
			"byteOffset":1212,
			"target":34962
		},
		{
			"buffer":0,
			"byteLength":402,
			"byteOffset":2424,
			"target":34963
		},
		{
			"buffer":0,
			"byteLength":240,
			"byteOffset":2828,
			"target":34962
		},
		{
			"buffer":0,
			"byteLength":240,
			"byteOffset":3068,
			"target":34962
		},
		{
			"buffer":0,
			"byteLength":84,
			"byteOffset":3308,
			"target":34963
		},
		{
			"buffer":0,
			"byteLength":768,
			"byteOffset":3392,
			"target":34962
		},
		{
			"buffer":0,
			"byteLength":768,
			"byteOffset":4160,
			"target":34962
		},
		{
			"buffer":0,
			"byteLength":192,
			"byteOffset":4928,
			"target":34963
		},
		{
			"buffer":0,
			"byteLength":576,
			"byteOffset":5120,
			"target":34962
		},
		{
			"buffer":0,
			"byteLength":576,
			"byteOffset":5696,
			"target":34962
		},
		{
			"buffer":0,
			"byteLength":96,
			"byteOffset":6272,
			"target":34963
		},
		{
			"buffer":0,
			"byteLength":768,
			"byteOffset":6368,
			"target":34962
		},
		{
			"buffer":0,
			"byteLength":768,
			"byteOffset":7136,
			"target":34962
		},
		{
			"buffer":0,
			"byteLength":1104,
			"byteOffset":7904,
			"target":34962
		},
		{
			"buffer":0,
			"byteLength":1104,
			"byteOffset":9008,
			"target":34962
		},
		{
			"buffer":0,
			"byteLength":300,
			"byteOffset":10112,
			"target":34963
		},
		{
			"buffer":0,
			"byteLength":3252,
			"byteOffset":10412,
			"target":34962
		},
		{
			"buffer":0,
			"byteLength":3252,
			"byteOffset":13664,
			"target":34962
		},
		{
			"buffer":0,
			"byteLength":1158,
			"byteOffset":16916,
			"target":34963
		}
	],
	"buffers":[
		{
			"byteLength":18076,
			"uri":"data:application/octet-stream;base64,"
		}
	]
}
